<svg xmlns="http://www.w3.org/2000/svg" xmlns:xlink="http://www.w3.org/1999/xlink" width="411" zoomAndPan="magnify" viewBox="0 0 308.25 305.25" height="407" preserveAspectRatio="xMidYMid meet" version="1.0"><defs><clipPath id="43f5a46e22"><path d="M 0.00390625 0 L 303.757812 0 L 303.757812 303.753906 L 0.00390625 303.753906 Z M 0.00390625 0 " clip-rule="nonzero"/></clipPath><clipPath id="d2d224bcf7"><path d="M 122 45 L 257 45 L 257 303.753906 L 122 303.753906 Z M 122 45 " clip-rule="nonzero"/></clipPath><clipPath id="e06dae8435"><path d="M 3.058594 0 L 306.8125 0 L 306.8125 303.753906 L 3.058594 303.753906 Z M 3.058594 0 " clip-rule="nonzero"/></clipPath><clipPath id="c5bfe42dcf"><path d="M 125 45 L 260 45 L 260 303.753906 L 125 303.753906 Z M 125 45 " clip-rule="nonzero"/></clipPath></defs><g clip-path="url(#43f5a46e22)"><path fill="#3d5a98" d="M 286.972656 303.730469 C 296.226562 303.730469 303.734375 296.226562 303.734375 286.96875 L 303.734375 16.761719 C 303.734375 7.503906 296.226562 0 286.972656 0 L 16.765625 0 C 7.507812 0 0.00390625 7.503906 0.00390625 16.761719 L 0.00390625 286.96875 C 0.00390625 296.226562 7.507812 303.730469 16.765625 303.730469 Z M 286.972656 303.730469 " fill-opacity="1" fill-rule="nonzero"/></g><g clip-path="url(#d2d224bcf7)"><path fill="#ffffff" d="M 209.574219 303.730469 L 209.574219 186.109375 L 249.050781 186.109375 L 254.964844 140.273438 L 209.574219 140.273438 L 209.574219 111.003906 C 209.574219 97.734375 213.257812 88.6875 232.289062 88.6875 L 256.5625 88.679688 L 256.5625 47.679688 C 252.363281 47.121094 237.957031 45.875 221.191406 45.875 C 186.195312 45.875 162.234375 67.234375 162.234375 106.464844 L 162.234375 140.269531 L 122.652344 140.269531 L 122.652344 186.109375 L 162.234375 186.109375 L 162.234375 303.730469 Z M 209.574219 303.730469 " fill-opacity="1" fill-rule="nonzero"/></g><g clip-path="url(#e06dae8435)"><path fill="#3d5a98" d="M 290.023438 303.730469 C 299.28125 303.730469 306.785156 296.226562 306.785156 286.96875 L 306.785156 16.761719 C 306.785156 7.503906 299.28125 0 290.023438 0 L 19.820312 0 C 10.558594 0 3.058594 7.503906 3.058594 16.761719 L 3.058594 286.96875 C 3.058594 296.226562 10.558594 303.730469 19.820312 303.730469 Z M 290.023438 303.730469 " fill-opacity="1" fill-rule="nonzero"/></g><g clip-path="url(#c5bfe42dcf)"><path fill="#ffffff" d="M 212.625 303.730469 L 212.625 186.109375 L 252.105469 186.109375 L 258.019531 140.273438 L 212.625 140.273438 L 212.625 111.003906 C 212.625 97.734375 216.308594 88.6875 235.34375 88.6875 L 259.617188 88.679688 L 259.617188 47.679688 C 255.417969 47.121094 241.007812 45.875 224.246094 45.875 C 189.25 45.875 165.289062 67.234375 165.289062 106.464844 L 165.289062 140.269531 L 125.707031 140.269531 L 125.707031 186.109375 L 165.289062 186.109375 L 165.289062 303.730469 Z M 212.625 303.730469 " fill-opacity="1" fill-rule="nonzero"/></g></svg>