<svg xmlns="http://www.w3.org/2000/svg" xmlns:xlink="http://www.w3.org/1999/xlink" width="419" zoomAndPan="magnify" viewBox="0 0 314.25 305.25" height="407" preserveAspectRatio="xMidYMid meet" version="1.0"><defs><clipPath id="0f882c5566"><path d="M 0.0117188 0 L 313.394531 0 L 313.394531 303.886719 L 0.0117188 303.886719 Z M 0.0117188 0 " clip-rule="nonzero"/></clipPath><clipPath id="4f6842cc55"><path d="M 38.167969 0 L 275.015625 0 C 285.136719 0 294.839844 4.019531 301.996094 11.175781 C 309.152344 18.332031 313.171875 28.035156 313.171875 38.15625 L 313.171875 265.730469 C 313.171875 275.847656 309.152344 285.554688 301.996094 292.710938 C 294.839844 299.867188 285.136719 303.886719 275.015625 303.886719 L 38.167969 303.886719 C 28.046875 303.886719 18.34375 299.867188 11.1875 292.710938 C 4.03125 285.554688 0.0117188 275.847656 0.0117188 265.730469 L 0.0117188 38.15625 C 0.0117188 28.035156 4.03125 18.332031 11.1875 11.175781 C 18.34375 4.019531 28.046875 0 38.167969 0 Z M 38.167969 0 " clip-rule="nonzero"/></clipPath><clipPath id="806d6e69fc"><path d="M 113 19.285156 L 270 19.285156 L 270 241 L 113 241 Z M 113 19.285156 " clip-rule="nonzero"/></clipPath><clipPath id="fe2ddca801"><path d="M 50.5 112 L 141 112 L 141 259 L 50.5 259 Z M 50.5 112 " clip-rule="nonzero"/></clipPath><clipPath id="747d05be0e"><path d="M 84 30 L 281.683594 30 L 281.683594 284.882812 L 84 284.882812 Z M 84 30 " clip-rule="nonzero"/></clipPath></defs><g clip-path="url(#0f882c5566)"><g clip-path="url(#4f6842cc55)"><path fill="#000000" d="M 0.0117188 0 L 313.394531 0 L 313.394531 303.886719 L 0.0117188 303.886719 Z M 0.0117188 0 " fill-opacity="1" fill-rule="nonzero"/></g></g><g clip-path="url(#806d6e69fc)"><path fill="#25f4ee" d="M 166.089844 83.183594 C 166.253906 62.058594 166.089844 40.933594 166.253906 19.808594 L 209.273438 19.808594 C 209.113281 23.546875 209.601562 27.285156 210.25 30.859375 L 178.589844 30.859375 L 178.589844 202.296875 C 178.753906 209.609375 176.96875 216.921875 173.394531 223.261719 C 167.875 233.011719 157.324219 239.671875 146.121094 240.648438 C 138.980469 241.136719 131.835938 239.835938 125.339844 236.421875 C 120.472656 233.824219 116.414062 230.085938 113.164062 225.535156 C 124.207031 231.710938 138.492188 231.058594 149.207031 224.234375 C 159.433594 217.898438 166.253906 205.871094 166.253906 193.683594 C 166.089844 156.632812 166.089844 119.910156 166.089844 83.183594 Z M 237.035156 70.996094 C 243.042969 74.734375 249.699219 77.660156 256.679688 79.285156 C 260.738281 80.257812 264.960938 80.585938 269.179688 80.585938 L 269.179688 90.335938 C 256.84375 87.410156 245.476562 80.585938 237.035156 70.996094 Z M 237.035156 70.996094 " fill-opacity="1" fill-rule="nonzero"/></g><g clip-path="url(#fe2ddca801)"><path fill="#25f4ee" d="M 88.328125 124.785156 C 103.75 115.035156 122.582031 111.132812 140.601562 113.734375 L 140.601562 123.972656 C 135.730469 124.132812 131.023438 124.785156 126.316406 125.597656 C 114.789062 128.035156 103.75 132.910156 94.171875 139.898438 C 83.941406 147.535156 76.152344 157.933594 70.628906 169.632812 C 65.4375 180.683594 62.839844 192.871094 63 205.058594 C 63 218.546875 66.734375 231.546875 73.066406 243.410156 C 75.988281 248.773438 79.398438 254.136719 83.941406 258.359375 C 74.851562 252.023438 67.222656 243.410156 61.539062 233.660156 C 53.910156 220.824219 50.175781 205.710938 50.5 190.597656 C 50.988281 176.785156 55.046875 163.132812 62.1875 151.273438 C 68.683594 140.710938 77.773438 131.285156 88.328125 124.785156 Z M 88.328125 124.785156 " fill-opacity="1" fill-rule="nonzero"/></g><path fill="#ffffff" d="M 178.589844 30.859375 L 210.574219 30.859375 C 211.710938 37.035156 213.984375 42.882812 216.742188 48.410156 C 221.289062 57.023438 227.621094 64.660156 235.738281 69.695312 C 236.226562 70.023438 236.710938 70.507812 237.035156 70.996094 C 245.476562 80.585938 256.84375 87.410156 269.34375 90.171875 C 269.503906 101.382812 269.34375 112.757812 269.34375 123.972656 C 248.238281 124.132812 227.132812 117.472656 210.085938 105.121094 C 210.085938 131.933594 210.085938 158.910156 210.25 185.722656 C 210.25 189.296875 210.410156 192.871094 210.25 196.609375 C 209.273438 209.609375 205.214844 222.609375 198.722656 233.984375 C 193.203125 243.898438 185.410156 252.671875 176.320312 259.335938 C 164.628906 268.109375 150.019531 272.984375 135.40625 273.308594 C 127.9375 273.472656 120.472656 273.148438 113.164062 271.523438 C 102.9375 269.246094 93.195312 265.023438 84.59375 259.011719 L 84.105469 258.523438 C 79.882812 254.296875 76.3125 248.933594 73.226562 243.574219 C 66.898438 232.035156 63.164062 218.710938 63.164062 205.222656 C 63 193.035156 65.597656 180.683594 70.792969 169.796875 C 76.152344 158.257812 84.269531 147.695312 94.332031 140.058594 C 103.910156 132.910156 114.789062 128.035156 126.476562 125.757812 C 131.1875 124.785156 136.054688 124.296875 140.765625 124.132812 C 140.925781 128.359375 140.765625 132.746094 140.925781 136.808594 L 140.925781 158.585938 C 135.570312 156.796875 129.5625 156.796875 123.878906 158.097656 C 117.222656 159.558594 110.894531 162.648438 105.535156 167.035156 C 102.289062 169.796875 99.527344 173.210938 97.742188 176.949219 C 94.332031 183.285156 93.195312 190.761719 94.007812 197.910156 C 94.820312 204.898438 97.742188 211.558594 102.289062 216.761719 C 105.210938 220.496094 109.269531 223.261719 113.164062 225.859375 C 116.414062 230.410156 120.472656 234.148438 125.339844 236.746094 C 131.671875 240.160156 138.980469 241.621094 146.121094 240.972656 C 157.324219 240.160156 167.714844 233.335938 173.394531 223.585938 C 176.96875 217.246094 178.753906 209.933594 178.589844 202.621094 C 178.753906 145.097656 178.589844 87.898438 178.589844 30.859375 Z M 178.589844 30.859375 " fill-opacity="1" fill-rule="nonzero"/><g clip-path="url(#747d05be0e)"><path fill="#fe2c55" d="M 210.410156 30.859375 C 214.144531 31.019531 217.878906 30.859375 221.777344 30.859375 C 221.777344 43.371094 225.671875 55.882812 232.976562 66.121094 C 233.953125 67.421875 234.761719 68.558594 235.738281 69.695312 C 227.457031 64.660156 220.964844 57.023438 216.742188 48.410156 C 213.984375 43.046875 211.710938 37.035156 210.410156 30.859375 Z M 269.179688 90.171875 C 273.238281 91.148438 277.460938 91.472656 281.683594 91.472656 L 281.683594 135.023438 C 260.414062 135.183594 239.148438 128.035156 221.777344 115.523438 L 221.777344 201.808594 C 221.9375 208.308594 221.449219 214.808594 219.988281 221.308594 C 215.929688 240.808594 204.242188 258.359375 188.332031 269.734375 C 179.890625 275.910156 170.148438 280.136719 159.921875 282.410156 C 147.582031 285.171875 134.757812 285.011719 122.582031 281.921875 C 108.132812 278.183594 94.820312 270.222656 84.753906 259.171875 C 93.359375 265.347656 103.101562 269.410156 113.328125 271.683594 C 120.632812 273.308594 128.101562 273.796875 135.570312 273.472656 C 150.179688 273.148438 164.628906 268.273438 176.480469 259.496094 C 185.574219 252.835938 193.039062 244.058594 198.886719 234.148438 C 205.378906 222.773438 209.601562 209.933594 210.410156 196.773438 C 210.574219 193.199219 210.574219 189.621094 210.410156 185.886719 C 210.25 158.910156 210.25 132.097656 210.25 105.285156 C 227.457031 117.632812 248.5625 124.296875 269.503906 124.132812 C 269.179688 112.757812 269.34375 101.382812 269.179688 90.171875 Z M 269.179688 90.171875 " fill-opacity="1" fill-rule="nonzero"/></g><path fill="#fe2c55" d="M 140.765625 123.808594 C 144.824219 123.808594 149.207031 123.972656 153.265625 124.621094 L 153.265625 169.308594 C 147.257812 167.195312 140.601562 167.035156 134.433594 168.496094 C 122.746094 171.097656 112.839844 180.035156 108.621094 191.410156 C 104.5625 202.621094 106.183594 215.621094 113.328125 225.210938 C 109.269531 222.773438 105.535156 219.847656 102.449219 216.109375 C 97.90625 210.910156 94.984375 204.085938 94.171875 197.261719 C 93.359375 190.109375 94.496094 182.636719 97.90625 176.296875 C 99.691406 172.558594 102.613281 169.148438 105.699219 166.382812 C 110.894531 161.835938 117.386719 159.070312 124.042969 157.445312 C 129.5625 156.148438 135.570312 156.148438 141.089844 157.933594 L 141.089844 136.160156 C 140.765625 132.421875 141.089844 128.195312 140.765625 123.808594 Z M 140.765625 123.808594 " fill-opacity="1" fill-rule="nonzero"/></svg>