<svg width="121" height="121" viewBox="0 0 121 121" fill="none" xmlns="http://www.w3.org/2000/svg">
<path d="M83.0111 46.8636H113.162C116.01 46.8636 118.319 49.1832 118.319 52.0448V79.6361C118.319 90.1539 109.831 98.6815 99.3619 98.6815H99.2723C88.8034 98.6815 80.3155 90.158 80.3135 79.6402V49.5718C80.3135 48.0766 81.5208 46.8636 83.0091 46.8636H83.0111Z" fill="#5059C9"/>
<path d="M103.388 41.4087C110.134 41.4087 115.603 35.914 115.603 29.1359C115.603 22.3578 110.134 16.8631 103.388 16.8631C96.641 16.8631 91.1719 22.3578 91.1719 29.1359C91.1719 35.914 96.641 41.4087 103.388 41.4087Z" fill="#5059C9"/>
<path d="M65.3829 41.4107C75.1283 41.4107 83.0285 33.4736 83.0285 23.6826C83.0285 13.8917 75.1283 5.95456 65.3829 5.95456C55.6375 5.95456 47.7373 13.8917 47.7373 23.6826C47.7373 33.4736 55.6375 41.4107 65.3829 41.4107Z" fill="#7B83EB"/>
<path d="M88.9114 46.8636H39.1425C36.3288 46.9332 34.1015 49.2814 34.1667 52.1082V83.5777C33.7737 100.547 47.1377 114.63 64.028 115.045C80.9182 114.63 94.2822 100.547 93.8893 83.5777V52.1082C93.9544 49.2793 91.7271 46.9332 88.9134 46.8636H88.9114Z" fill="#7B83EB"/>
<path opacity="0.1" d="M66.7418 46.8636V90.9639C66.7275 92.9869 65.508 94.8033 63.6471 95.5724C63.0546 95.824 62.4174 95.9549 61.774 95.9549H36.5547C36.2025 95.0549 35.8767 94.1549 35.6039 93.2283C34.6531 90.0987 34.1686 86.8464 34.1645 83.5736V52.1C34.0993 49.2773 36.3226 46.9332 39.1322 46.8636H66.7397H66.7418Z" fill="black"/>
<path opacity="0.2" d="M64.0278 46.8636V93.6905C64.0278 94.3369 63.8975 94.9771 63.6471 95.5724C62.8816 97.4419 61.0716 98.6672 59.0601 98.6815H37.8312C37.3691 97.7815 36.9354 96.8815 36.5547 95.9549C36.174 95.0283 35.8767 94.1549 35.6039 93.2283C34.6531 90.0987 34.1686 86.8464 34.1645 83.5737V52.1C34.0993 49.2773 36.3226 46.9332 39.1322 46.8636H64.0258H64.0278Z" fill="black"/>
<path opacity="0.2" d="M64.0278 46.8636V88.2373C64.0074 90.9844 61.7943 93.2078 59.06 93.2283H35.6059C34.6551 90.0987 34.1705 86.8464 34.1664 83.5736V52.1C34.1013 49.2773 36.3245 46.9332 39.1342 46.8636H64.0278Z" fill="black"/>
<path opacity="0.2" d="M61.3119 46.8636V88.2373C61.2915 90.9844 59.0784 93.2078 56.3441 93.2283H35.6039C34.6531 90.0987 34.1686 86.8464 34.1645 83.5736V52.1C34.0993 49.2773 36.3226 46.9332 39.1322 46.8636H61.3098H61.3119Z" fill="black"/>
<path opacity="0.1" d="M66.7415 32.7643V41.3552C66.2794 41.3818 65.8457 41.4105 65.3835 41.4105C64.9214 41.4105 64.4877 41.3839 64.0256 41.3552C63.1094 41.2939 62.2013 41.1487 61.3116 40.9196C55.8146 39.6125 51.2723 35.7384 49.0959 30.502C48.7213 29.6224 48.4302 28.7102 48.2266 27.7754H61.7718C64.5101 27.7856 66.7293 30.0152 66.7395 32.7663L66.7415 32.7643Z" fill="black"/>
<path opacity="0.2" d="M64.0273 35.491V41.3554C63.1111 41.294 62.2031 41.1488 61.3134 40.9197C55.8163 39.6126 51.2741 35.7385 49.0977 30.5021H59.0596C61.7979 30.5124 64.0171 32.7419 64.0273 35.4931V35.491Z" fill="black"/>
<path opacity="0.2" d="M64.0273 35.491V41.3554C63.1111 41.294 62.2031 41.1488 61.3134 40.9197C55.8163 39.6126 51.2741 35.7385 49.0977 30.5021H59.0596C61.7979 30.5124 64.0171 32.7419 64.0273 35.4931V35.491Z" fill="black"/>
<path opacity="0.2" d="M61.3114 35.4909V40.9176C55.8143 39.6105 51.2721 35.7364 49.0957 30.5H56.3437C59.082 30.5102 61.3012 32.7398 61.3114 35.4909Z" fill="black"/>
<path d="M6.56669 30.5H56.3355C59.0841 30.5 61.3114 32.7377 61.3114 35.4991V85.5006C61.3114 88.262 59.0841 90.4997 56.3355 90.4997H6.56669C3.81815 90.4997 1.59082 88.262 1.59082 85.5006V35.4991C1.59082 32.7377 3.81815 30.5 6.56669 30.5Z" fill="url(#paint0_linear_2204_2700)"/>
<path d="M44.5479 49.5313H34.5982V76.7503H28.2603V49.5313H18.3574V44.252H44.5479V49.5313Z" fill="white"/>
<defs>
<linearGradient id="paint0_linear_2204_2700" x1="12.1436" y1="26.8828" x2="51.8106" y2="95.2643" gradientUnits="userSpaceOnUse">
<stop stop-color="#5A62C3"/>
<stop offset="0.5" stop-color="#4D55BD"/>
<stop offset="1" stop-color="#3940AB"/>
</linearGradient>
</defs>
</svg>
