<svg width="220" height="220" viewBox="0 0 220 220" fill="none" xmlns="http://www.w3.org/2000/svg">
<circle cx="110" cy="110" r="110" fill="#9DBDD6"/>
<mask id="mask0_184_5788" style="mask-type:alpha" maskUnits="userSpaceOnUse" x="0" y="0" width="220" height="220">
<circle cx="110" cy="110" r="110" fill="#84ADC9"/>
</mask>
<g mask="url(#mask0_184_5788)">
<path d="M80.2707 166.748H137.089C141.956 166.748 145.896 170.679 145.896 175.534V222.333C145.896 234.146 136.282 243.738 124.441 243.738H92.9387C81.0982 243.738 71.4839 234.146 71.4839 222.333V175.534C71.4839 170.679 75.4242 166.748 80.2904 166.748H80.2707Z" fill="#D7EBFF"/>
<path d="M145.896 195.956H71.4641V199.848H145.896V195.956Z" fill="#15365E"/>
<path d="M91.2246 208.142C96.8826 208.142 101.469 203.566 101.469 197.922C101.469 192.277 96.8826 187.701 91.2246 187.701C85.5666 187.701 80.9799 192.277 80.9799 197.922C80.9799 203.566 85.5666 208.142 91.2246 208.142Z" fill="#D7EBFF"/>
<path d="M91.2246 210.088C84.4867 210.088 79.0294 204.624 79.0294 197.922C79.0294 191.219 84.5064 185.755 91.2246 185.755C97.9427 185.755 103.42 191.219 103.42 197.922C103.42 204.624 97.9427 210.088 91.2246 210.088ZM91.2246 189.647C86.6538 189.647 82.9303 193.362 82.9303 197.922C82.9303 202.482 86.6538 206.196 91.2246 206.196C95.7953 206.196 99.5188 202.482 99.5188 197.922C99.5188 193.362 95.7953 189.647 91.2246 189.647Z" fill="#15365E"/>
<path d="M169.281 188.448C176.289 188.448 181.969 182.781 181.969 175.79C181.969 168.799 176.289 163.132 169.281 163.132C162.274 163.132 156.594 168.799 156.594 175.79C156.594 182.781 162.274 188.448 169.281 188.448Z" fill="#15365E"/>
<path d="M188.423 176.877L194.73 221.704C195.354 226.141 192.252 230.248 187.803 230.871L166.596 233.84C162.147 234.463 158.031 231.368 157.407 226.93L151.1 182.103C150.813 180.059 152.238 178.173 154.287 177.886L184.176 173.7C186.225 173.413 188.116 174.836 188.404 176.88L188.423 176.877Z" fill="#D7EBFF"/>
<path d="M46.2463 190.924C52.9924 190.924 58.4612 185.468 58.4612 178.738C58.4612 172.008 52.9924 166.552 46.2463 166.552C39.5003 166.552 34.0315 172.008 34.0315 178.738C34.0315 185.468 39.5003 190.924 46.2463 190.924Z" fill="#15365E"/>
<path d="M64.0319 183.853L60.3602 227.295C59.9977 231.584 56.2085 234.776 51.9092 234.415L31.3548 232.685C27.0555 232.324 23.8557 228.543 24.2182 224.254L27.89 180.813C28.0572 178.835 29.8027 177.364 31.7855 177.531L60.7619 179.969C62.7447 180.135 64.2187 181.877 64.0516 183.855L64.0319 183.853Z" fill="#D7EBFF"/>
<path d="M193.613 121.6L176.709 127.929V65.5432L193.613 71.8722C196.43 72.9335 198.302 75.6067 198.302 78.6139V114.839C198.302 117.846 196.43 120.539 193.613 121.58V121.6Z" fill="#FF5B00"/>
<path d="M23.7474 121.6L40.6512 127.929V65.5432L23.7474 71.8722C20.9301 72.9335 19.0585 75.6067 19.0585 78.6139V114.839C19.0585 117.846 20.9301 120.539 23.7474 121.58V121.6Z" fill="#FF5B00"/>
<path d="M185.555 70.5356V122.917C185.555 127.261 184.708 131.467 183.013 135.457C181.378 139.29 179.073 142.729 176.098 145.678C173.143 148.626 169.695 150.945 165.853 152.577C161.874 154.267 157.638 155.112 153.304 155.112H64.0761C59.7221 155.112 55.506 154.267 51.5263 152.577C47.6846 150.945 44.2368 148.646 41.2816 145.678C38.3264 142.729 36.0016 139.29 34.3664 135.457C32.6721 131.487 31.825 127.261 31.825 122.917V70.5356C31.825 66.1918 32.6721 61.9855 34.3664 58.0152C35.9819 54.1824 38.3067 50.7427 41.2816 47.7944C44.2368 44.8461 47.6846 42.5268 51.5263 40.8954C55.506 39.205 59.7418 38.3599 64.0761 38.3599H153.304C157.658 38.3599 161.874 39.205 165.853 40.8954C169.695 42.5071 173.143 44.8265 176.098 47.7944C179.053 50.7427 181.378 54.1824 183.013 58.0152C184.708 61.9855 185.555 66.2114 185.555 70.5356Z" fill="#D7EBFF"/>
<path d="M64.0761 52.9834H153.304C163.016 52.9834 170.897 60.8455 170.897 70.5356V122.917C170.897 132.607 163.016 140.469 153.304 140.469H64.0761C54.3633 140.469 46.4828 132.607 46.4828 122.917V70.5356C46.4828 60.8455 54.3633 52.9834 64.0761 52.9834Z" fill="#15365E"/>
<path d="M99.9129 67.8232C98.1397 64.9731 89.4317 64.4818 88.0132 68.1573C86.5947 71.8328 85.6294 96.7164 88.0132 99.9792C90.3971 103.242 97.9033 103.399 99.2627 100.412C100.681 97.2864 102.238 71.5773 99.9129 67.8232Z" fill="white"/>
<path d="M119.792 67.8232C121.644 64.9731 130.785 64.4818 132.282 68.1573C133.78 71.8525 134.784 96.7164 132.282 99.9792C129.839 103.183 121.919 103.399 120.461 100.412C119.004 97.424 117.329 71.5773 119.772 67.8232H119.792Z" fill="white"/>
<path d="M112.069 119.32C88.821 119.91 86.378 112.677 79.2658 112.736C75.6014 112.755 77.8868 130.524 112.325 129.639C145.896 128.774 148.733 113.207 144.32 112.618C140.734 112.146 136.498 118.711 112.069 119.32Z" fill="white"/>
</g>
</svg>
