<svg viewBox="0 0 102 32" fill="none" xmlns="http://www.w3.org/2000/svg">
<g clip-path="url(#clip0_2050_4744)">
<path d="M38.9798 21.6001C38.9798 22.7075 38.1793 23.3066 37.2837 23.3066C36.3881 23.3066 35.5876 22.7528 35.5876 21.6001V12.5543C35.5876 11.4972 36.3381 10.8982 37.2837 10.8982C38.2293 10.8982 38.9798 11.5023 38.9798 12.5543V21.6001Z" fill="#1265AF"/>
<path d="M46.6197 12.504C46.6197 11.4469 47.3701 10.8982 48.2657 10.8982C49.1613 10.8982 49.8617 11.4519 49.8617 12.504V21.6001C49.8617 22.6572 49.0612 23.3066 48.2657 23.3066C47.4702 23.3066 47.165 23.0549 46.7698 22.4508L43.6227 17.7291V21.7008C43.6227 22.7579 42.8723 23.3066 41.9767 23.3066C41.0811 23.3066 40.3807 22.7528 40.3807 21.7008V12.6047C40.3807 11.5476 41.1312 10.9485 41.9767 10.9485C42.8222 10.9485 43.1274 11.2002 43.5227 11.8043L46.6697 16.526V12.5543L46.6197 12.504Z" fill="#1265AF"/>
<path d="M57.0563 14.4118C55.2101 14.4118 54.2595 15.7206 54.2595 17.0747C54.2595 18.4288 55.2101 19.7879 57.0563 19.7879H58.3071C59.4578 19.7879 60.0032 20.6437 60.0032 21.4944C60.0032 22.3451 59.4528 23.2009 58.3071 23.2009H57.0563C53.0137 23.2009 51.0125 20.1856 51.0125 17.1703C51.0125 14.1551 53.1088 10.9385 57.3565 10.9385H58.3071C59.4078 10.9385 60.0032 11.7942 60.0032 12.6449C60.0032 13.4957 59.4028 14.3514 58.3071 14.3514H57.0563V14.4017V14.4118Z" fill="#1265AF"/>
<path d="M62.8 23.2059C61.6993 23.2059 61.1539 22.6522 61.1539 21.4994V12.5543C61.1539 11.4972 61.9044 10.8982 62.8 10.8982C63.6955 10.8982 64.496 11.5023 64.496 12.5543V19.7879H66.2922C67.3429 19.7879 67.8882 20.543 67.8882 21.4944C67.8882 22.4458 67.3379 23.2009 66.2922 23.2009H62.795L62.8 23.2059Z" fill="#1265AF"/>
<path d="M78.53 17.9304C78.53 21.4994 76.8839 23.3066 73.6369 23.3066C70.3898 23.3066 68.6437 21.4994 68.6437 17.9304V12.5543C68.6437 11.4972 69.4442 10.8982 70.3398 10.8982C71.2353 10.8982 72.0358 11.5023 72.0358 12.5543V18.4842C72.0358 19.4909 72.5362 19.9893 73.6319 19.9893C74.7276 19.9893 75.2279 19.4859 75.2279 18.4842V12.5543C75.2279 11.4972 76.0284 10.8982 76.8739 10.8982C77.7195 10.8982 78.57 11.5023 78.57 12.5543V17.9304H78.52H78.53Z" fill="#1265AF"/>
<path d="M91.6634 12.2523V22.1488C91.6634 23.1556 90.8629 23.2562 90.5126 23.2562C90.1624 23.2562 89.4119 23.1556 89.4119 22.1488V14.0594L88.0661 15.8666L86.7202 17.6737C86.37 18.1268 86.1699 18.1771 85.9197 18.1771C85.6695 18.1771 85.4194 18.0261 85.1692 17.6737L83.7733 15.8666L82.4275 14.1098V22.1991C82.4275 23.0045 81.8771 23.3066 81.3268 23.3066C80.7764 23.3066 80.176 23.2059 80.176 22.1991V12.3026C80.176 11.4469 80.8265 11.0442 81.3768 11.0442C81.9272 11.0442 82.3274 11.2959 82.6276 11.6986L85.2743 15.1166L85.8747 15.8716L86.4751 15.1166L89.1718 11.6986C89.472 11.2959 89.9723 11.0442 90.4226 11.0442C90.8729 11.0442 91.6734 11.4469 91.6734 12.3026V12.2523H91.6634Z" fill="#EB5D1D"/>
<path d="M102 22.0481C102 22.5515 101.7 23.2059 100.899 23.2059H94.5552C93.7547 23.2059 93.4545 22.9039 93.4545 22.0481V12.202C93.4545 11.3462 93.7547 11.0442 94.5552 11.0442H100.899C101.7 11.0442 102 11.6482 102 12.202C102 12.7557 101.7 13.3597 100.899 13.3597H95.6559V16.1737H100.149C100.849 16.1737 101.099 16.677 101.099 17.1301C101.099 17.5831 100.849 18.0865 100.149 18.0865H95.6559V20.9004H100.899C101.7 20.9004 102 21.4541 102 22.0079V22.0582V22.0481Z" fill="#EB5D1D"/>
<path d="M20.9539 12.218L17.3171 15.8771C16.3616 16.8384 16.3616 18.397 17.3171 19.3582L20.9539 23.0174C21.9093 23.9786 23.4584 23.9786 24.4139 23.0174L28.0507 19.3582C29.0061 18.397 29.0061 16.8384 28.0507 15.8771L24.4139 12.218C23.4584 11.2567 21.9093 11.2567 20.9539 12.218Z" fill="#1265AF"/>
<path d="M12.7473 20.4785L9.11041 24.1376C8.15497 25.0989 8.15497 26.6575 9.11041 27.6187L12.7473 31.2779C13.7027 32.2391 15.2518 32.2391 16.2072 31.2779L19.8441 27.6187C20.7995 26.6575 20.7995 25.0989 19.8441 24.1376L16.2072 20.4785C15.2518 19.5172 13.7027 19.5172 12.7473 20.4785Z" fill="#1265AF"/>
<path d="M12.5488 0.720189L8.91192 4.3793C7.95648 5.34059 7.95648 6.89915 8.91192 7.86044L12.5488 11.5196C13.5042 12.4808 15.0533 12.4808 16.0087 11.5196L19.6456 7.86044C20.601 6.89915 20.601 5.34059 19.6456 4.3793L16.0087 0.720189C15.0533 -0.241102 13.5042 -0.241101 12.5488 0.720189Z" fill="#EB5D1D"/>
<path d="M4.35495 12.0754L0.718103 15.7345C-0.237337 16.6958 -0.237338 18.2544 0.718103 19.2157L4.35495 22.8748C5.31039 23.8361 6.85947 23.8361 7.81491 22.8748L11.4518 19.2157C12.4072 18.2544 12.4072 16.6958 11.4518 15.7345L7.81491 12.0754C6.85947 11.1141 5.31039 11.1141 4.35495 12.0754Z" fill="#1265AF"/>
</g>
<defs>
<clipPath id="clip0_2050_4744">
<rect width="102" height="32" fill="white"/>
</clipPath>
</defs>
</svg>
