<svg width="29" height="32" viewBox="0 0 29 32" fill="none" xmlns="http://www.w3.org/2000/svg">
<path d="M20.9539 12.218L17.3171 15.8771C16.3616 16.8384 16.3616 18.397 17.3171 19.3582L20.9539 23.0174C21.9093 23.9786 23.4584 23.9786 24.4139 23.0174L28.0507 19.3582C29.0061 18.397 29.0061 16.8384 28.0507 15.8771L24.4139 12.218C23.4584 11.2567 21.9093 11.2567 20.9539 12.218Z" fill="#1265AF"/>
<path d="M12.7473 20.4785L9.11038 24.1376C8.15494 25.0989 8.15494 26.6575 9.11038 27.6187L12.7473 31.2779C13.7027 32.2391 15.2518 32.2391 16.2072 31.2779L19.8441 27.6187C20.7995 26.6575 20.7995 25.0989 19.8441 24.1376L16.2072 20.4785C15.2518 19.5172 13.7027 19.5172 12.7473 20.4785Z" fill="#1265AF"/>
<path d="M12.5488 0.720235L8.91189 4.37935C7.95645 5.34064 7.95645 6.8992 8.91189 7.86049L12.5488 11.5196C13.5042 12.4808 15.0533 12.4808 16.0087 11.5196L19.6456 7.86049C20.601 6.8992 20.601 5.34064 19.6456 4.37935L16.0087 0.720235C15.0533 -0.241056 13.5042 -0.241055 12.5488 0.720235Z" fill="#EB5D1D"/>
<path d="M4.35489 12.0755L0.718045 15.7346C-0.237395 16.6959 -0.237396 18.2545 0.718045 19.2158L4.35489 22.8749C5.31033 23.8362 6.85941 23.8362 7.81485 22.8749L11.4517 19.2158C12.4071 18.2545 12.4071 16.6959 11.4517 15.7346L7.81485 12.0755C6.85941 11.1142 5.31033 11.1142 4.35489 12.0755Z" fill="#1265AF"/>
</svg>
