<svg width="56" height="56" viewBox="0 0 56 56" fill="none" xmlns="http://www.w3.org/2000/svg">
<rect width="56" height="56" rx="17" fill="#FF7212"/>
<g clip-path="url(#clip0_71339_5445)">
<path fill-rule="evenodd" clip-rule="evenodd" d="M28 7C22.3817 11.8961 18.86 12.125 13 12.125V31.8306C13 39.6941 18.3383 41.7458 28 48C37.6617 41.7458 43 39.6941 43 31.8306V12.125C37.14 12.125 33.6183 11.8961 28 7ZM28 9.20717C32.9033 13.1534 36.5333 13.7428 41.3333 13.8214V31.8306C41.3333 38.4778 36.9367 40.2749 28 45.9825C19.0417 40.2595 14.6667 38.4419 14.6667 31.8306V13.8214C19.4667 13.7428 23.0967 13.1534 28 9.20717ZM36.3333 22.428L26.3467 33.7423L20.2267 27.0268L21.395 25.86L26.4083 31.2993L35.12 21.2577L36.3333 22.428Z" fill="white" stroke="white"/>
</g>
<defs>
<clipPath id="clip0_71339_5445">
<rect width="40" height="41" fill="white" transform="translate(8 7)"/>
</clipPath>
</defs>
</svg>
