<?xml version="1.0" encoding="UTF-8"?>
<svg id="PLANCHE_02_-_icones_sans_noms" data-name="PLANCHE 02 - icones sans noms" xmlns="http://www.w3.org/2000/svg" viewBox="0 0 75.18 75.13">
  <defs>
    <style>
      .cls-1 {
        fill: #fff;
      }

      .cls-1, .cls-2, .cls-3 {
        stroke-width: 0px;
      }

      .cls-2 {
        fill: #ff6200;
      }

      .cls-3 {
        fill: #ad5316;
      }
    </style>
  </defs>
  <g id="Banque_-_copie" data-name="Banque - copie">
    <g>
      <path class="cls-2" d="M75.13,15.96v43.2c0,8.79-7.15,15.95-15.94,15.95H15.99C7.2,75.11.05,67.96.05,59.17V15.96C.05,7.17,7.2.02,15.99.02h43.21c8.79,0,15.94,7.15,15.94,15.94Z"/>
      <path class="cls-3" d="M75.13,35.58v23.58c0,8.79-7.15,15.95-15.94,15.95h-23.59l-17.48-17.48L56.79,17.24l18.35,18.35Z"/>
      <path class="cls-1" d="M37.59,9.6c-15.44,0-27.96,12.52-27.96,27.96s12.52,27.97,27.96,27.97,27.96-12.52,27.96-27.97-12.52-27.96-27.96-27.96ZM45.26,26.82h-3.45c-3.4,0-6.12.88-8.1,2.63l-2.18,1.91h11.76c1.4,0,2.02,1.04,2.02,2.08s-.53,2.08-2.02,2.08h-12.91v3.88h10.34c1.4,0,2.02,1.04,2.02,2.08s-.53,2.08-2.02,2.08h-9.04l1.87,1.86c2.13,2.14,4.89,3.22,8.21,3.22h3.5c2.68,0,3.39,2.31,3.39,3.67,0,.82-.24,3.5-3.34,3.5h-3.88c-7.85,0-14.69-4.53-17.42-11.55l-.27-.7h-1.02c-.98,0-2.03-.65-2.03-2.08,0-.93.54-1.7,1.38-1.97l.76-.24v-3.63l-.78-.24c-.86-.26-1.36-.98-1.36-1.96,0-1.04.63-2.08,2.03-2.08h1.06l.28-.69c2.79-6.9,9.78-11.18,18.24-11.18h3.01c2.35,0,3.4,1.86,3.4,3.72s-1.07,3.61-3.45,3.61Z"/>
      <path class="cls-1" d="M48.65,52.31c0,.82-.24,3.5-3.34,3.5h-3.88c-7.85,0-14.69-4.53-17.42-11.55l-.27-.7h-1.02c-.98,0-2.03-.65-2.03-2.08,0-.93.54-1.7,1.38-1.97l.76-.24v-3.63l-.78-.24c-.86-.26-1.36-.98-1.36-1.96,0-1.04.63-2.08,2.03-2.08h1.06l.28-.69c2.79-6.9,9.78-11.18,18.24-11.18h3.01c2.35,0,3.4,1.86,3.4,3.72s-1.07,3.61-3.45,3.61h-3.45c-3.4,0-6.12.88-8.1,2.63l-2.18,1.91h11.76c1.4,0,2.02,1.04,2.02,2.08s-.53,2.08-2.02,2.08h-12.91v3.88h10.34c1.4,0,2.02,1.04,2.02,2.08s-.53,2.08-2.02,2.08h-9.04l1.87,1.86c2.13,2.14,4.89,3.22,8.21,3.22h3.5c2.68,0,3.39,2.31,3.39,3.67Z"/>
      <path class="cls-2" d="M45.26,48.64h-3.5c-3.32,0-6.08-1.08-8.21-3.22l-1.87-1.86h9.04c1.49,0,2.02-1.07,2.02-2.08s-.62-2.08-2.02-2.08h-10.34v-3.88h12.91c1.49,0,2.02-1.08,2.02-2.08s-.62-2.08-2.02-2.08h-11.76l2.18-1.91c1.98-1.75,4.7-2.63,8.1-2.63h3.45c2.38,0,3.45-1.81,3.45-3.61s-1.05-3.72-3.4-3.72h-3.01c-8.46,0-15.45,4.28-18.24,11.18l-.28.69h-1.06c-1.4,0-2.03,1.04-2.03,2.08,0,.98.5,1.7,1.36,1.96l.78.24v3.63l-.76.24c-.84.27-1.38,1.04-1.38,1.97,0,1.43,1.05,2.08,2.03,2.08h1.02l.27.7c2.73,7.02,9.57,11.55,17.42,11.55h3.88c3.1,0,3.34-2.68,3.34-3.5,0-1.36-.71-3.67-3.39-3.67Z"/>
    </g>
  </g>
</svg>