<svg width="52" height="52" viewBox="0 0 76 76" fill="none" xmlns="http://www.w3.org/2000/svg">
<g clip-path="url(#clip0_398_3)">
<path d="M75.1298 15.9695V59.1695C75.1298 67.9595 67.9798 75.1095 59.1898 75.1095H15.9898C7.1998 75.1095 0.0498047 67.9595 0.0498047 59.1695V15.9695C0.0498047 7.16953 7.1998 0.0195312 15.9898 0.0195312H59.1898C67.9798 0.0195312 75.1298 7.16953 75.1298 15.9695Z" fill="#0A63A5"/>
<path d="M75.1298 37.8891V59.1691C75.1298 67.9591 67.9798 75.1091 59.1898 75.1091H31.2898L18.7998 62.6191L38.2698 10.5391L47.4898 10.6091L75.1298 37.8891Z" fill="#25497A"/>
<path d="M57.63 25.7494V59.1694C57.63 62.1294 55.23 64.5194 52.28 64.5194H22.9C19.94 64.5194 17.54 62.1194 17.54 59.1594V15.9594C17.54 12.9994 19.94 10.6094 22.89 10.6094H42.42C43.36 10.6094 44.12 11.3694 44.12 12.3094V17.0694C44.12 20.9194 47.24 24.0494 51.1 24.0494H55.92C56.86 24.0494 57.62 24.8094 57.62 25.7494H57.63Z" fill="white"/>
<path d="M49.9497 31.8092H26.1497C24.9397 31.8092 23.9697 30.8292 23.9697 29.6292C23.9697 28.4292 24.9497 27.4492 26.1497 27.4492H49.9497C51.1597 27.4492 52.1297 28.4292 52.1297 29.6292C52.1297 30.8292 51.1497 31.8092 49.9497 31.8092Z" fill="#0A63A5"/>
<path d="M49.9497 40.6598H26.1497C24.9397 40.6598 23.9697 39.6798 23.9697 38.4798C23.9697 37.2798 24.9497 36.2998 26.1497 36.2998H49.9497C51.1597 36.2998 52.1297 37.2798 52.1297 38.4798C52.1297 39.6798 51.1497 40.6598 49.9497 40.6598Z" fill="#0A63A5"/>
<path d="M49.9497 49.5094H26.1497C24.9397 49.5094 23.9697 48.5294 23.9697 47.3294C23.9697 46.1294 24.9497 45.1494 26.1497 45.1494H49.9497C51.1597 45.1494 52.1297 46.1294 52.1297 47.3294C52.1297 48.5294 51.1497 49.5094 49.9497 49.5094Z" fill="#0A63A5"/>
<path d="M38.0497 58.0397H26.1497C24.9397 58.0397 23.9697 57.0597 23.9697 55.8597C23.9697 54.6597 24.9497 53.6797 26.1497 53.6797H38.0497C39.2597 53.6797 40.2297 54.6597 40.2297 55.8597C40.2297 57.0597 39.2497 58.0397 38.0497 58.0397Z" fill="#0A63A5"/>
<path d="M56.9497 21.3697H50.9697C48.6297 21.3697 46.7397 19.4797 46.7397 17.1397V11.2997C46.7397 10.6897 47.4697 10.3897 47.8997 10.8097L57.4297 20.1997C57.8697 20.6297 57.5597 21.3697 56.9497 21.3697Z" fill="white"/>
</g>
<defs>
<clipPath id="clip0_398_3">
<rect width="75.18" height="75.13" fill="white"/>
</clipPath>
</defs>
</svg>
