<svg width="52" height="53" viewBox="0 0 52 53" fill="none" xmlns="http://www.w3.org/2000/svg">
<path d="M40.9561 0.640137H11.037C4.94144 0.640137 0 5.58224 0 11.6786V41.6017C0 47.698 4.94144 52.6401 11.037 52.6401H40.9561C47.0516 52.6401 51.9931 47.698 51.9931 41.6017V11.6786C51.9931 5.58224 47.0516 0.640137 40.9561 0.640137Z" fill="#2A8DC4"/>
<path opacity="0.25" d="M51.9929 25.8056V41.5947C51.9929 47.6818 47.0422 52.6331 40.9559 52.6331H19.325L4.78442 37.8205L19.4358 35.1128L8.81425 24.4206L11.8055 20.1548L14.9421 22.6893L17.2893 16.3252L22.0462 21.0897L24.5389 20.4595L27.6686 21.9899L29.635 16.1313L33.9349 20.4318L37.2792 19.947L39.9104 22.9109L42.313 16.2491L51.9999 25.8056H51.9929Z" fill="black"/>
<path d="M44.1482 33.2017H7.12508C5.52279 33.2017 4.22388 34.5007 4.22388 36.1032C4.22388 37.7057 5.52279 39.0048 7.12508 39.0048H44.1482C45.7505 39.0048 47.0494 37.7057 47.0494 36.1032C47.0494 34.5007 45.7505 33.2017 44.1482 33.2017Z" fill="white"/>
<path d="M43.9888 33.9426H43.9819C42.7887 33.9426 41.8215 34.91 41.8215 36.1032V36.1102C41.8215 37.3034 42.7887 38.2708 43.9819 38.2708H43.9888C45.1819 38.2708 46.1491 37.3034 46.1491 36.1102V36.1032C46.1491 34.91 45.1819 33.9426 43.9888 33.9426Z" fill="#267099"/>
<path d="M15.406 16.8308C15.5583 16.2422 15.953 15.9929 16.4515 15.9929C17.047 15.9929 17.6355 16.4292 17.6355 17.1771C17.6355 17.3156 17.6217 17.461 17.5732 17.6134L15.5583 24.0052C15.3575 24.5938 14.8382 24.85 14.402 24.85C13.8688 24.85 13.4188 24.5523 13.218 24.0052L12.0616 20.792L10.9538 24.0052C10.753 24.5938 10.2337 24.85 9.79746 24.85C9.2643 24.85 8.77269 24.5523 8.61344 24.0052L6.47389 17.5649C6.42542 17.4264 6.37695 17.3294 6.37695 17.1909C6.37695 16.443 6.95165 15.9929 7.58867 15.9929C8.07336 15.9929 8.50958 16.2284 8.66883 16.817L9.8667 21.1174L11.0023 16.8793C11.1546 16.2907 11.5493 15.9929 12.124 15.9929C12.5879 15.9929 13.0933 16.2907 13.2457 16.8793L14.3535 21.1174L15.4268 16.8308H15.406Z" fill="white"/>
<path d="M27.9526 16.8308C28.1049 16.2422 28.4996 15.9929 28.9982 15.9929C29.5936 15.9929 30.1822 16.4292 30.1822 17.1771C30.1822 17.3156 30.1683 17.461 30.1199 17.6134L28.1049 24.0052C27.9041 24.5938 27.3848 24.85 26.9486 24.85C26.4155 24.85 25.9654 24.5523 25.7646 24.0052L24.6083 20.792L23.5004 24.0052C23.2996 24.5938 22.7803 24.85 22.3441 24.85C21.8109 24.85 21.3193 24.5523 21.1601 24.0052L19.0205 17.5649C18.9721 17.4264 18.9236 17.3294 18.9236 17.1909C18.9236 16.443 19.4983 15.9929 20.1353 15.9929C20.62 15.9929 21.0562 16.2284 21.2155 16.817L22.4133 21.1174L23.5489 16.8793C23.7012 16.2907 24.0959 15.9929 24.6706 15.9929C25.1345 15.9929 25.64 16.2907 25.7923 16.8793L26.9001 21.1174L27.9734 16.8308H27.9526Z" fill="white"/>
<path d="M40.4922 16.8308C40.6445 16.2422 41.0392 15.9929 41.5377 15.9929C42.1332 15.9929 42.7217 16.4292 42.7217 17.1771C42.7217 17.3156 42.7079 17.461 42.6594 17.6134L40.6445 24.0052C40.4437 24.5938 39.9244 24.85 39.4882 24.85C38.955 24.85 38.5049 24.5523 38.3041 24.0052L37.1478 20.792L36.04 24.0052C35.8392 24.5938 35.3199 24.85 34.8836 24.85C34.3505 24.85 33.8589 24.5523 33.6996 24.0052L31.5601 17.5649C31.5116 17.4264 31.4631 17.3294 31.4631 17.1909C31.4631 16.443 32.0378 15.9929 32.6749 15.9929C33.1595 15.9929 33.5958 16.2284 33.755 16.817L34.9529 21.1174L36.0884 16.8793C36.2408 16.2907 36.6354 15.9929 37.2101 15.9929C37.6741 15.9929 38.1795 16.2907 38.3318 16.8793L39.4397 21.1174L40.5129 16.8308H40.4922Z" fill="white"/>
<path d="M44.0442 24.8224C44.7746 24.8224 45.3667 24.2302 45.3667 23.4997C45.3667 22.7692 44.7746 22.177 44.0442 22.177C43.3138 22.177 42.7217 22.7692 42.7217 23.4997C42.7217 24.2302 43.3138 24.8224 44.0442 24.8224Z" fill="white"/>
</svg>
