<svg width="52" height="53" viewBox="0 0 52 53" fill="none" xmlns="http://www.w3.org/2000/svg">
<path d="M52 11.6855V41.6017C52 47.6888 47.0486 52.6401 40.9615 52.6401H11.0454C4.95832 52.6401 0 47.6888 0 41.6017V11.6855C0 5.59153 4.95832 0.640137 11.0454 0.640137H40.9615C47.0486 0.640137 52 5.59153 52 11.6855Z" fill="#0CA35E"/>
<path opacity="0.25" d="M52.0001 26.8653V41.6018C52.0001 47.6889 47.0487 52.6403 40.9616 52.6403H21.6408L12.9915 43.9909L19.5425 13.9571L26.4676 7.91846L32.8524 7.96693L39.7359 14.6011L51.9932 26.8584L52.0001 26.8653Z" fill="black"/>
<path d="M39.8813 18.4584V41.6018C39.8813 43.6516 38.2193 45.3067 36.1764 45.3067H15.8307C13.7809 45.3067 12.1189 43.6447 12.1189 41.5949V11.6788C12.1189 9.62896 13.7809 7.97388 15.8238 7.97388H29.3484C29.9993 7.97388 30.5256 8.50018 30.5256 9.15113V12.4474C30.5256 15.1136 32.6862 17.2811 35.3593 17.2811H38.6971C39.3481 17.2811 39.8744 17.8074 39.8744 18.4584H39.8813Z" fill="white"/>
<path d="M39.4035 15.425H35.2623C33.6418 15.425 32.333 14.1162 32.333 12.4957V8.45148C32.333 8.02906 32.8385 7.82131 33.1363 8.11216L39.7359 14.6148C40.0406 14.9125 39.8259 15.425 39.4035 15.425Z" fill="white"/>
<path d="M34.272 19.7463H17.7904C16.9525 19.7463 16.2808 20.425 16.2808 21.256V39.3026C16.2808 40.1405 16.9594 40.8123 17.7904 40.8123H34.272C35.1099 40.8123 35.7816 40.1336 35.7816 39.3026V21.256C35.7816 20.4181 35.103 19.7463 34.272 19.7463ZM19.307 28.6727H24.5215V31.8928H19.307V28.6727ZM27.5478 28.6727H32.7623V31.8928H27.5478V28.6727ZM32.7623 25.6534H27.5478V22.7726H32.7623V25.6534ZM24.5215 22.7726V25.6534H19.307V22.7726H24.5215ZM19.307 34.9191H24.5215V37.7999H19.307V34.9191ZM27.5478 37.7999V34.9191H32.7623V37.7999H27.5478Z" fill="#0CA35E"/>
</svg>
