<svg width="56" height="56" viewBox="0 0 56 56" fill="none" xmlns="http://www.w3.org/2000/svg">
<rect width="56" height="56" rx="17" fill="#FF7212"/>
<g clip-path="url(#clip0_71339_5448)">
<path d="M38.7083 10H18.2917C14.2638 10 11 13.2652 11 17.2917V37.7083C11 41.7348 14.2638 45 18.2917 45H38.7083C42.7363 45 46 41.7348 46 37.7083V17.2917C46 13.2652 42.7363 10 38.7083 10ZM13.9167 37.7083V17.2917C13.9167 14.8796 15.8796 12.9167 18.2917 12.9167H24.125V21.8125C24.125 22.9077 24.4079 23.8571 24.9431 24.5585C26.1419 26.1277 28.5087 26.1292 30.1392 24.4915L30.4965 24.1181C31.0973 23.4779 31.4283 23.125 32.4288 23.125C33.804 23.125 35.7917 24.6825 35.7917 27.5C35.7917 30.3175 33.804 31.875 32.4288 31.875C31.4269 31.875 31.0973 31.5221 30.4965 30.8819L30.1435 30.5129C29.321 29.686 28.3323 29.231 27.3596 29.231C25.8006 29.231 24.125 30.4692 24.125 33.1875V42.0833H18.2917C15.8796 42.0833 13.9167 40.1204 13.9167 37.7083ZM43.0833 37.7083C43.0833 40.1204 41.1204 42.0833 38.7083 42.0833H27.0417V33.1875C27.0417 32.4948 27.2458 32.1462 27.3596 32.1462C27.4967 32.1462 27.765 32.2571 28.08 32.5735L28.3687 32.8754C29.0833 33.6396 30.1654 34.7917 32.4288 34.7917C35.4606 34.7917 38.7083 31.8619 38.7083 27.5C38.7083 23.1381 35.4606 20.2083 32.4288 20.2083C30.1654 20.2083 29.0833 21.3604 28.3687 22.1231L28.0756 22.4294C27.7621 22.7429 27.4865 22.8538 27.2619 22.7896C27.2094 22.7225 27.0417 22.4513 27.0417 21.8125V12.9167H38.7083C41.1204 12.9167 43.0833 14.8796 43.0833 17.2917V37.7083Z" fill="white"/>
</g>
<defs>
<clipPath id="clip0_71339_5448">
<rect width="35" height="35" fill="white" transform="translate(11 10)"/>
</clipPath>
</defs>
</svg>
