<?xml version="1.0" encoding="UTF-8"?>
<svg id="PLANCHE_02_-_icones_sans_noms" data-name="PLANCHE 02 - icones sans noms" xmlns="http://www.w3.org/2000/svg" viewBox="0 0 75.18 75.13">
  <defs>
    <style>
      .cls-1 {
        fill: #ae5d1e !important;
      }

      .cls-1, .cls-2, .cls-3, .cls-4 {
        stroke-width: 0px;
      }

      .cls-2 {
        fill: #ff7212 !important;
      }

      .cls-3 {
        fill: #d1702f !important;
      }

      .cls-4 {
        fill: #fff !important;
      }
    </style>
  </defs>
  <g id="Antivirus_-_copie" data-name="Antivirus - copie">
    <g>
      <path class="cls-2" d="M75.13,15.97v43.2c0,8.79-7.15,15.94-15.94,15.94H15.99C7.2,75.11.05,67.96.05,59.17V15.97C.05,7.17,7.2.02,15.99.02h43.2c8.79,0,15.94,7.15,15.94,15.95Z"/>
      <path class="cls-1" d="M75.13,38.8v20.37c0,8.79-7.15,15.94-15.94,15.94h-16.97l-10.32-10.32,27.96-41.26,15.26,15.26Z"/>
      <path class="cls-4" d="M61.78,29.41c-3.63,18.2-16.14,37.13-25.11,37.13-8.38,0-21.49-18.93-25.12-37.13-.46-2.3.15-4.64,2.19-5.98l3.4-1.15c5.84-1.96,11.01-3.82,14.99-8.29l1.67-1.88c.73-.82,1.75-1.36,2.84-1.38h.05c1.1.02,2.12.56,2.84,1.38l1.67,1.88c3.97,4.47,9.15,6.33,14.98,8.29l3.4,1.15c2.04,1.34,2.65,3.68,2.19,5.98Z"/>
      <path class="cls-3" d="M36.19,46.31c-.78,0-1.56-.3-2.15-.89l-6.81-6.81c-1.19-1.19-1.19-3.11,0-4.3s3.11-1.19,4.3,0l4.66,4.66,8.67-8.67c1.19-1.19,3.11-1.19,4.3,0,1.19,1.19,1.19,3.11,0,4.3l-10.82,10.82c-.59.59-1.37.89-2.15.89Z"/>
    </g>
  </g>
</svg>