<?xml version="1.0" encoding="UTF-8"?>
<svg id="PLANCHE_02_-_icones_sans_noms" data-name="PLANCHE 02 - icones sans noms" xmlns="http://www.w3.org/2000/svg" viewBox="0 0 75.18 75.13">
  <defs>
    <style>
      .cls_mail-1 {
        fill: #d14b4b !important;
      }

      .cls_mail-1, .cls_mail-2, .cls_mail-3, .cls_mail-4 {
        stroke-width: 0px;
      }

      .cls_mail-2 {
        fill: #8e413a !important;
      }

      .cls_mail-3 {
        fill: #9b3a3a !important;
      }

      .cls_mail-4 {
        fill: #fff !important;
      }
    </style>
  </defs>
  <g id="Boïte_mail_-_copie" data-name="Boïte mail - copie">
    <g>
      <rect class="cls_mail-1" x=".05" y=".02" width="75.09" height="75.09" rx="15.94" ry="15.94"/>
      <path class="cls_mail-2" d="M72.75,35.91l-2.39-2.52-9.92-10.47-46.48,2.49-.13,22.75.5,6.05h0l.32.33,15.16,15.78,4.58,4.77h24.79c8.79,0,15.94-7.15,15.94-15.94v-20.73l-2.39-2.52Z"/>
      <polygon class="cls_mail-3" points="14.33 54.22 28.87 44.35 14.33 54.22 14.33 54.22"/>
      <polygon class="cls_mail-3" points="60.44 22.92 36.13 39.42 60.42 22.93 60.44 22.92"/>
      <polygon class="cls_mail-3" points="60.44 22.92 36.13 39.42 60.42 22.93 60.44 22.92"/>
      <path class="cls_mail-4" d="M35.93,39.32l-20.43-11.68c-2.76-1.58-1.64-5.79,1.54-5.79h41.01c3.18,0,4.3,4.22,1.53,5.79l-20.58,11.68c-.95.54-2.12.54-3.07,0Z"/>
      <path class="cls_mail-4" d="M61.15,34.03v18.75c0,1.29-1.04,2.33-2.33,2.33H16.17c-1.29,0-2.33-1.04-2.33-2.33v-18.83c0-1.79,1.94-2.91,3.49-2.02l19.01,10.87c.72.41,1.59.41,2.31,0l19.02-10.8c1.55-.88,3.48.24,3.48,2.03Z"/>
    </g>
  </g>
</svg>