<svg width="56" height="56" viewBox="0 0 56 56" fill="none" xmlns="http://www.w3.org/2000/svg">
<rect width="56" height="56" rx="17" fill="#FF7212"/>
<g clip-path="url(#clip0_71339_5447)">
<path d="M27.5 9.58333C37.3792 9.58333 45.4167 17.6207 45.4167 27.5C45.4167 37.3792 37.3792 45.4167 27.5 45.4167C17.6207 45.4167 9.58333 37.3792 9.58333 27.5C9.58333 17.6207 17.6207 9.58333 27.5 9.58333ZM27.5 6C15.6266 6 6 15.6266 6 27.5C6 39.3734 15.6266 49 27.5 49C39.3734 49 49 39.3734 49 27.5C49 15.6266 39.3734 6 27.5 6ZM37.3685 30.9776C34.6577 33.1187 31.6817 34.4373 27.5018 34.4373C23.3183 34.4373 20.3423 33.1187 17.6315 30.9776L16.75 31.8609C18.7692 34.9426 22.4833 38.25 27.5018 38.25C32.5185 38.25 36.2308 34.9426 38.25 31.8609L37.3685 30.9776ZM21.2292 20.3333C19.7457 20.3333 18.5417 21.5355 18.5417 23.0208C18.5417 24.5061 19.7457 25.7083 21.2292 25.7083C22.7127 25.7083 23.9167 24.5061 23.9167 23.0208C23.9167 21.5355 22.7127 20.3333 21.2292 20.3333ZM38.25 23.9202L36.8973 24.8268C36.8973 24.8268 35.9961 23.1283 33.769 23.1283C31.6065 23.1283 30.6426 24.8268 30.6426 24.8268L29.2917 23.9202C29.7951 22.5801 31.4506 20.3333 33.769 20.3333C36.0892 20.3333 37.743 22.5801 38.25 23.9202Z" fill="white"/>
</g>
<defs>
<clipPath id="clip0_71339_5447">
<rect width="43" height="43" fill="white" transform="translate(6 6)"/>
</clipPath>
</defs>
</svg>
