<svg width="272" height="272" viewBox="0 0 272 272" fill="none" xmlns="http://www.w3.org/2000/svg">
<g clip-path="url(#clip0_71173_171099)">
<path d="M253.311 136L272 112.381L246.251 96.4807L255.601 68L225.862 61.7327L224.751 31.8127L194.661 35.938L183.226 8.194L156.366 22.2133L136 0L115.634 22.2247L88.774 8.20533L77.3387 35.938L47.2487 31.824L46.138 61.744L16.3993 68L25.7493 96.4807L0 112.381L18.6887 136L0 159.619L25.7493 175.519L16.3993 204L46.138 210.267L47.2487 240.187L77.3387 236.062L88.774 263.806L115.634 249.787L136 272L156.366 249.787L183.226 263.806L194.661 236.062L224.751 240.187L225.862 210.267L255.601 204L246.251 175.519L272 159.619L253.311 136ZM184.824 133.665C189.561 134.3 191.964 137.383 191.964 140.579C191.964 144.239 188.825 148.059 182.399 148.569C178.455 148.875 177.48 152.105 182.217 153.17C186.195 154.077 188.439 156.865 188.439 159.868C188.439 163.427 185.277 167.28 178.092 168.606C173.751 169.399 173.321 173.649 177.911 174.012C181.809 174.307 183.339 175.667 183.339 177.548C183.339 182.829 173.978 192.655 155.845 192.655C127.5 192.667 117.232 175.667 79.3333 175.667V119.408C99.348 116.337 118.819 110.149 128.565 76.3187C131.274 66.9007 132.985 56.6667 142.018 56.6667C155.482 56.6667 156.717 85.7027 151.583 106.431C159.018 110.33 172.833 111.735 179.792 111.441C189.833 111.033 192.667 116.076 192.667 119.884C192.667 125.607 187.952 127.534 184.994 128.441C181.549 129.506 179.962 133.019 184.824 133.665Z" fill="#FF7100"/>
</g>
<defs>
<clipPath id="clip0_71173_171099">
<rect width="272" height="272" fill="white"/>
</clipPath>
</defs>
</svg>
