<svg width="54" height="54" viewBox="0 0 54 54" fill="none" xmlns="http://www.w3.org/2000/svg">
<rect width="54" height="54" rx="16" fill="#FF6200"/>
<g clip-path="url(#clip0_71173_174028)">
<path d="M37.625 31.25C34.1046 31.25 31.25 34.1046 31.25 37.625C31.25 41.1454 34.1046 44 37.625 44C41.1454 44 44 41.1454 44 37.625C44 34.1046 41.1454 31.25 37.625 31.25ZM37.625 34.0833L41.1667 38.3333H38.3333V41.1667H36.9167V38.3333H34.0833L37.625 34.0833ZM30.9624 43.9632L30.1577 44C21.0613 44 15.9174 38.118 14.454 31.25H10L10.4717 28.4167H14.0559C13.9936 27.4732 13.9964 26.5268 14.0658 25.5833H10.9449L11.4167 22.75H14.4795C15.9712 15.882 21.0457 10 29.4877 10C31.794 10 34.2902 10.3967 36.9167 11.1787L35.8329 15.6582C33.7858 15.0674 32.0037 14.7798 30.3986 14.7798C25.725 14.7798 22.7939 18.3498 21.6804 22.75H32.6667L32.1949 25.5833H21.2214C21.1492 26.5254 21.1577 27.476 21.2413 28.4167H31.7218L31.25 31.25H21.7357C22.7103 34.837 24.9473 37.8375 28.4946 38.764C28.7425 40.7672 29.6364 42.5706 30.9624 43.9632Z" fill="white"/>
</g>
<defs>
<clipPath id="clip0_71173_174028">
<rect width="34" height="34" fill="white" transform="translate(10 10)"/>
</clipPath>
</defs>
</svg>
