<svg width="52" height="52" viewBox="0 0 52 52" fill="none" xmlns="http://www.w3.org/2000/svg"><path d="M52 11.0454V40.9615C52 47.0486 47.0486 52 40.9615 52H11.0454C4.95832 52 0 47.0486 0 40.9615V11.0454C0 4.95139 4.95832 0 11.0454 0H40.9615C47.0486 0 52 4.95139 52 11.0454Z" fill="#FCB33D"/><path opacity="0.25" d="M52.0003 21.5645V40.9615C52.0003 47.0486 47.0489 52 40.9618 52H20.8793L8.78125 39.902L18.3863 15.3112L17.3337 14.2586L15.0692 11.9941L18.1508 11.0731L25.1659 13.947H44.3828L52.0003 21.5645Z" fill="black"/><path d="M45.5404 16.7378V32.2083C45.5404 34.3758 43.7815 36.1348 41.6139 36.1348H40.7552V20.1587C40.7552 17.3749 38.4977 15.1243 35.7207 15.1243H22.8402L21.1297 13.4207C20.2364 12.5135 18.976 11.9941 17.681 11.9941H15.0703C15.2781 10.6784 16.4207 9.68118 17.7988 9.68118H24.7307C25.4232 9.68118 26.088 9.95818 26.5797 10.4429L28.9411 12.8113H41.607C43.7745 12.8113 45.5404 14.5703 45.5404 16.7447V16.7378Z" fill="white"/><path d="M38.4804 20.1588V37.9492C38.4804 39.4796 37.2408 40.7192 35.7104 40.7192H10.7388C9.20833 40.7192 7.96875 39.4796 7.96875 37.9492V17.0287C7.96875 15.4983 9.20833 14.2587 10.7388 14.2587H17.6776C18.3701 14.2587 19.0349 14.5288 19.5197 15.0205L21.888 17.3888H35.7104C37.2408 17.3888 38.4804 18.6284 38.4804 20.1588Z" fill="white"/><path d="M31.489 35.0336L27.4933 31.0379C28.0473 30.0407 28.3589 28.8981 28.3589 27.6793C28.3589 23.8359 25.2357 20.7127 21.3924 20.7127C17.549 20.7127 14.4258 23.8359 14.4258 27.6793C14.4258 31.5226 17.542 34.6528 21.3924 34.6528C22.6319 34.6528 23.8092 34.3273 24.8202 33.7525L28.8021 37.7344C29.5431 38.4754 30.7481 38.4754 31.496 37.7344C32.2369 36.9934 32.2369 35.7885 31.496 35.0406L31.489 35.0336ZM25.2981 29.2512C24.8756 30.2969 24.0585 31.1279 23.0197 31.5642C22.5142 31.7789 21.9671 31.8897 21.3854 31.8897C19.0517 31.8897 17.1681 29.9991 17.1681 27.6723C17.1681 25.3455 19.0517 23.4619 21.3854 23.4619C23.7192 23.4619 25.5958 25.3524 25.5958 27.6723C25.5958 28.2333 25.492 28.7596 25.2911 29.2443L25.2981 29.2512Z" fill="#ECA32A"/></svg>