<svg width="51" height="51" viewBox="0 0 51 51" fill="none" xmlns="http://www.w3.org/2000/svg">
<path fill-rule="evenodd" clip-rule="evenodd" d="M46.75 6.375C47.8763 6.375 48.9579 6.82337 49.7547 7.62025C50.5516 8.41712 51 9.49875 51 10.625V40.375C51 41.5013 50.5516 42.5829 49.7547 43.3797C48.9579 44.1766 47.8763 44.625 46.75 44.625H4.25C3.12375 44.625 2.04212 44.1766 1.24525 43.3797C0.448375 42.5829 0 41.5013 0 40.375V10.625C0 9.49875 0.448375 8.41712 1.24525 7.62025C2.04212 6.82337 3.12375 6.375 4.25 6.375H46.75ZM48.875 23.375H2.125V40.375C2.125 41.548 3.077 42.5 4.25 42.5H46.75C47.923 42.5 48.875 41.548 48.875 40.375V23.375ZM17 34V36.125H6.375V34H17ZM44.625 29.75V31.875H38.25V29.75H44.625ZM23.375 29.75V31.875H6.375V29.75H23.375ZM2.125 17V21.25H48.875V17H2.125ZM48.875 14.875V10.625C48.875 9.452 47.923 8.5 46.75 8.5H4.25C3.077 8.5 2.125 9.452 2.125 10.625V14.875H48.875Z" fill="#FF6200"/>
</svg>
