<svg width="18" height="18" viewBox="0 0 18 18" fill="none" xmlns="http://www.w3.org/2000/svg">
<path d="M1.75 10.7778C1.75 10.3636 1.41421 10.0278 1 10.0278C0.585786 10.0278 0.25 10.3636 0.25 10.7778H1.75ZM17.75 10.7778C17.75 10.3636 17.4142 10.0278 17 10.0278C16.5858 10.0278 16.25 10.3636 16.25 10.7778H17.75ZM5.08589 4.91411C4.79299 4.62122 4.31812 4.62122 4.02523 4.91411C3.73233 5.20701 3.73233 5.68188 4.02523 5.97477L5.08589 4.91411ZM9 9.88889L8.46967 10.4192C8.76256 10.7121 9.23744 10.7121 9.53033 10.4192L9 9.88889ZM13.9748 5.97477C14.2677 5.68188 14.2677 5.20701 13.9748 4.91411C13.6819 4.62122 13.207 4.62122 12.9141 4.91411L13.9748 5.97477ZM9.75 1C9.75 0.585786 9.41421 0.25 9 0.25C8.58579 0.25 8.25 0.585786 8.25 1H9.75ZM14.3333 16.25H3.66667V17.75H14.3333V16.25ZM1.75 14.3333V10.7778H0.25V14.3333H1.75ZM16.25 10.7778V14.3333H17.75V10.7778H16.25ZM3.66667 16.25C2.60812 16.25 1.75 15.3919 1.75 14.3333H0.25C0.25 16.2203 1.77969 17.75 3.66667 17.75V16.25ZM14.3333 17.75C16.2203 17.75 17.75 16.2203 17.75 14.3333H16.25C16.25 15.3919 15.3919 16.25 14.3333 16.25V17.75ZM4.02523 5.97477L8.46967 10.4192L9.53033 9.35856L5.08589 4.91411L4.02523 5.97477ZM9.53033 10.4192L13.9748 5.97477L12.9141 4.91411L8.46967 9.35856L9.53033 10.4192ZM9.75 9.88889V1H8.25V9.88889H9.75Z" fill="black"/>
</svg>
