<svg width="30" height="30" viewBox="0 0 30 30" fill="none" xmlns="http://www.w3.org/2000/svg">
<path d="M15 30C23.2843 30 30 23.2843 30 15C30 6.71573 23.2843 0 15 0C6.71573 0 0 6.71573 0 15C0 23.2843 6.71573 30 15 30Z" fill="#5A9DFF"/>
<path d="M22.6878 16.1695V22.4249C22.6878 24.0129 21.6953 24.9946 20.0912 24.9946H16.1695C9.34548 24.9946 6.23389 19.8927 6.23389 15.1502C6.23389 10.4077 8.94848 5.01074 16.6041 5.01074H18.2403C19.9463 5.01074 20.8369 6.31976 20.8369 7.60731C20.8369 8.89486 20.0214 10.2092 18.2403 10.2092H16.1641C12.7092 10.2092 11.1373 12.6931 11.1373 15C11.1373 17.8863 12.7736 19.6996 15.5311 19.8498C16.1588 19.8498 17.0762 19.8498 17.3229 19.8498H17.6878V18.3262H16.5397C15.9174 18.3262 15.338 18.0848 14.8981 17.6449C14.4581 17.2049 14.2167 16.6255 14.2167 16.0086C14.2167 14.7318 15.2575 13.6856 16.5397 13.6856H20.1985C21.3948 13.6964 22.6824 14.4796 22.6824 16.1695H22.6878Z" fill="white"/>
</svg>
