<svg width="18" height="18" viewBox="0 0 18 18" fill="none" xmlns="http://www.w3.org/2000/svg">
<path d="M1.21875 14.559L4.37146 11.4063C4.71859 11.0592 5.28141 11.0592 5.62854 11.4063L6.14924 11.927C6.49637 12.2741 7.05918 12.2741 7.40632 11.927L10.1492 9.18409C10.4964 8.83696 11.0592 8.83696 11.4063 9.18409L16.7767 14.5545M7.22222 6.33333C7.22222 6.82425 6.82425 7.22222 6.33333 7.22222C5.84241 7.22222 5.44444 6.82425 5.44444 6.33333M7.22222 6.33333C7.22222 5.84241 6.82425 5.44444 6.33333 5.44444C5.84241 5.44444 5.44444 5.84241 5.44444 6.33333M7.22222 6.33333H5.44444M3.66667 17H14.3333C15.8061 17 17 15.8061 17 14.3333V3.66667C17 2.19391 15.8061 1 14.3333 1H3.66667C2.19391 1 1 2.19391 1 3.66667V14.3333C1 15.8061 2.19391 17 3.66667 17Z" stroke="black" stroke-width="1.5" stroke-linecap="round" stroke-linejoin="round"/>
</svg>
