<svg width="110" height="82" viewBox="0 0 110 82" fill="none" xmlns="http://www.w3.org/2000/svg">
<g clip-path="url(#clip0_71173_63935)">
<path d="M108.759 20.9302C108.111 20.3471 107.24 20 106.296 20H13.7035C12.7588 20 11.8884 20.3462 11.2408 20.9302C10.4813 21.605 10 22.5713 10 23.6469V78.3523C10 79.4278 10.4813 80.395 11.2408 81.0689C11.8893 81.652 12.7597 81.9991 13.7035 81.9991H106.296C107.258 81.9991 108.129 81.6529 108.777 81.0513C109.537 80.3765 109.999 79.4102 109.999 78.3523V23.6469C109.999 22.5713 109.519 21.6041 108.759 20.9302Z" fill="black" fill-opacity="0.05"/>
<path d="M98.7592 0.930211C98.1107 0.347068 97.2403 0 96.2965 0H3.70351C2.75884 0 1.88843 0.346187 1.24076 0.930211C0.481277 1.60497 0 2.57129 0 3.64685V58.3523C0 59.4278 0.481277 60.395 1.24076 61.0689C1.88932 61.652 2.75974 61.9991 3.70351 61.9991H96.2956C97.2581 61.9991 98.1286 61.6529 98.7771 61.0513C99.5366 60.3765 99.9991 59.4102 99.9991 58.3523V3.64685C99.9991 2.57129 99.5187 1.60409 98.7592 0.930211Z" fill="#D14B4B"/>
<path d="M98.7592 0.930211C98.1107 0.347068 97.2403 0 96.2965 0H3.70351C2.75884 0 1.88843 0.346187 1.24076 0.930211C0.481277 1.60497 0 2.57129 0 3.64685V58.3523C0 59.4278 0.481277 60.395 1.24076 61.0689C1.88932 61.652 2.75974 61.9991 3.70351 61.9991H96.2956C97.2581 61.9991 98.1286 61.6529 98.7771 61.0513C99.5366 60.3765 99.9991 59.4102 99.9991 58.3523V3.64685C99.9991 2.57129 99.5187 1.60409 98.7592 0.930211Z" fill="black" fill-opacity="0.4"/>
<path d="M41.3147 31L1.24076 61.0698C0.481277 60.395 0 59.4287 0 58.3531V3.64682C0 2.57126 0.481277 1.60405 1.24076 0.930176L41.3147 31Z" fill="#D14B4B"/>
<path d="M41.3147 31L1.24076 61.0698C0.481277 60.395 0 59.4287 0 58.3531V3.64682C0 2.57126 0.481277 1.60405 1.24076 0.930176L41.3147 31Z" fill="black" fill-opacity="0.2"/>
<path d="M100 3.64682V58.3522C100 59.4102 99.5366 60.3765 98.778 61.0513L58.6854 31L98.7593 0.930176C99.5187 1.60493 100 2.57126 100 3.64682Z" fill="#D14B4B"/>
<path d="M100 3.64682V58.3522C100 59.4102 99.5366 60.3765 98.778 61.0513L58.6854 31L98.7593 0.930176C99.5187 1.60493 100 2.57126 100 3.64682Z" fill="black" fill-opacity="0.2"/>
<path d="M98.7593 0.930211L58.6854 31L52.537 35.6132C51.0368 36.7618 48.9632 36.7618 47.463 35.6132L41.3147 31L1.24078 0.930211C1.88934 0.346187 2.75886 0 3.70353 0H96.2956C97.2403 0 98.1116 0.346187 98.7593 0.930211Z" fill="#D14B4B"/>
</g>
<defs>
<clipPath id="clip0_71173_63935">
<rect width="110" height="82" fill="white"/>
</clipPath>
</defs>
</svg>
