<svg width="20" height="18" viewBox="0 0 20 18" fill="none" xmlns="http://www.w3.org/2000/svg">
<path d="M19 14.3333V10.916C19 10.2375 18.8689 9.56522 18.6138 8.93524L16.0789 2.67629C15.6689 1.66387 14.6761 1 13.572 1H6.42799C5.32395 1 4.33113 1.66387 3.9211 2.67629L1.38623 8.93525C1.13109 9.56522 1 10.2375 1 10.916V14.3333M19 14.3333C19 15.8061 17.7912 17 16.3 17H3.7C2.20883 17 1 15.8061 1 14.3333M19 14.3333V11.6667C19 10.6848 18.1941 9.88889 17.2 9.88889H15.2027C14.7897 9.88889 14.4297 10.1665 14.3296 10.5622L13.7704 12.7711C13.6703 13.1668 13.3103 13.4444 12.8973 13.4444H7.1027C6.68972 13.4444 6.32973 13.1668 6.22957 12.7711L5.67043 10.5622C5.57027 10.1665 5.21028 9.88889 4.7973 9.88889H2.8C1.80589 9.88889 1 10.6848 1 11.6667V14.3333M10 4.11111V9.44444M10 4.11111L12.7 6.77778M10 4.11111L7.3 6.77778" stroke="black" stroke-width="1.5" stroke-linecap="round" stroke-linejoin="round"/>
</svg>
