<svg width="20" height="18" viewBox="0 0 20 18" fill="none" xmlns="http://www.w3.org/2000/svg">
<path d="M10.0005 5.44444V9M10.0005 12.5556V12.5644M4.50731 2.32588L1.36613 7.65921C0.877957 8.48806 0.877958 9.51194 1.36613 10.3408L4.50731 15.6741C4.99078 16.495 5.87979 17 6.84135 17H13.1587C14.1202 17 15.0092 16.495 15.4927 15.6741L18.6339 10.3408C19.122 9.51194 19.122 8.48806 18.6339 7.65921L15.4927 2.32588C15.0092 1.50501 14.1202 1 13.1587 1L6.84135 1C5.87979 1 4.99078 1.50501 4.50731 2.32588ZM10.2255 12.5556C10.2255 12.6783 10.1248 12.7778 10.0005 12.7778C9.87626 12.7778 9.77552 12.6783 9.77552 12.5556C9.77552 12.4328 9.87626 12.3333 10.0005 12.3333C10.1248 12.3333 10.2255 12.4328 10.2255 12.5556Z" stroke="black" stroke-width="1.5" stroke-linecap="round" stroke-linejoin="round"/>
</svg>
