<svg width="18" height="18" viewBox="0 0 18 18" fill="none" xmlns="http://www.w3.org/2000/svg">
<path d="M15.3387 6.59878V6.13026C15.3387 5.91813 15.2511 5.71469 15.0952 5.56469L10.5949 1.23426C10.439 1.08427 10.2275 1 10.0071 1H3.49364C2.11644 1 1 2.07428 1 3.39948V14.597C1 15.9222 2.11644 16.9965 3.49364 16.9965H6.19532M13.2918 11.2278L15.5153 13.3673M10.3514 1.07186V4.19932C10.3514 5.08279 11.0957 5.79898 12.0138 5.79898H15.264M11.3336 16.759L9.85542 16.9961C9.65852 17.0277 9.48781 16.8634 9.52063 16.6739L9.76699 15.2516C9.85244 14.7583 10.0959 14.303 10.4634 13.9493L14.4113 10.1505C14.8982 9.68202 15.6877 9.68202 16.1746 10.1505L16.6348 10.5934C17.1217 11.0619 17.1217 11.8216 16.6348 12.2901L12.6869 16.0889C12.3194 16.4425 11.8463 16.6768 11.3336 16.759Z" stroke="black" stroke-width="1.5" stroke-linecap="round" stroke-linejoin="round"/>
</svg>
