<svg width="20" height="18" viewBox="0 0 20 18" fill="none" xmlns="http://www.w3.org/2000/svg">
<path d="M19.0001 14.3333V10.916C19.0001 10.2375 18.869 9.56522 18.6139 8.93524L16.079 2.67629C15.669 1.66387 14.6761 1 13.5721 1H6.42802C5.32397 1 4.33115 1.66387 3.92112 2.67629L1.38623 8.93525C1.13109 9.56522 1 10.2375 1 10.916V14.3333M19.0001 14.3333C19.0001 15.8061 17.7913 17 16.3001 17H3.70002C2.20884 17 1 15.8061 1 14.3333M19.0001 14.3333V11.6667C19.0001 10.6848 18.1942 9.88889 17.2001 9.88889H15.2028C14.7898 9.88889 14.4298 10.1665 14.3297 10.5622L13.7705 12.7711C13.6703 13.1668 13.3104 13.4444 12.8974 13.4444H7.10274C6.68975 13.4444 6.32977 13.1668 6.2296 12.7711L5.67046 10.5622C5.57029 10.1665 5.21031 9.88889 4.79732 9.88889H2.80001C1.80589 9.88889 1 10.6848 1 11.6667V14.3333M10.0001 9.44444V4.11111M10.0001 9.44444L12.7001 6.77778M10.0001 9.44444L7.30004 6.77778" stroke="#005FB8" stroke-width="1.5" stroke-linecap="round" stroke-linejoin="round"/>
</svg>
