<svg width="138" height="88" viewBox="0 0 138 88" fill="none" xmlns="http://www.w3.org/2000/svg">
<g clip-path="url(#clip0_71173_64266)">
<path d="M60.5941 54.261V85.9325C60.5941 87.1016 61.8533 87.633 62.6928 86.889L81.6384 70.2763L91.1293 77.4301C92.5983 78.5991 94.697 78.2803 95.8512 76.7924L137.719 21.1016L38.6634 34.8117C37.719 34.918 37.4042 36.0871 38.1387 36.7247L60.5941 54.261Z" fill="black" fill-opacity="0.05"/>
<path d="M50.5944 34.261V65.9325C50.5944 67.1016 51.8536 67.633 52.693 66.889L127.719 1.10156L50.5944 34.261Z" fill="#D14B4B"/>
<path d="M50.5944 34.261V65.9325C50.5944 67.1016 51.8536 67.633 52.693 66.889L127.719 1.10156L50.5944 34.261Z" fill="black" fill-opacity="0.2"/>
<path d="M58.5696 40.4248L50.6997 65.5069C50.3849 66.7823 51.749 67.7388 52.7983 66.8886L71.686 50.3089L58.5696 40.4248Z" fill="#D14B4B"/>
<path d="M58.5696 40.4248L50.6997 65.5069C50.3849 66.7823 51.749 67.7388 52.7983 66.8886L71.686 50.3089L58.5696 40.4248Z" fill="black" fill-opacity="0.4"/>
<path d="M127.719 1.10156L28.6636 14.8117C27.7192 14.918 27.4044 16.0871 28.139 16.7247L50.5944 34.261L127.719 1.10156Z" fill="#D14B4B"/>
<path d="M58.5692 40.4252L127.719 1.10156L85.8515 56.7924C84.6972 58.2803 82.5986 58.5991 81.1295 57.4301L58.5692 40.4252Z" fill="#D14B4B"/>
<path d="M11.8765 58.6147L21.0815 54.7074" stroke="#D14B4B" stroke-width="4" stroke-linecap="round"/>
<path d="M3.65381 62.2666L6.41532 61.0944" stroke="#D14B4B" stroke-width="4" stroke-linecap="round"/>
<path d="M10.6021 68.4072L32.6942 59.0297" stroke="#D14B4B" stroke-width="4" stroke-linecap="round"/>
<path d="M16.4458 47.458L33.0149 40.4248" stroke="#D14B4B" stroke-width="4" stroke-linecap="round"/>
</g>
<defs>
<clipPath id="clip0_71173_64266">
<rect width="137.438" height="87" fill="white" transform="matrix(-1 0 0 1 137.719 0.5)"/>
</clipPath>
</defs>
</svg>
