<svg width="16" height="18" viewBox="0 0 16 18" fill="none" xmlns="http://www.w3.org/2000/svg">
<path d="M2.16667 3.8L3.02467 13.5077C3.13363 14.7404 3.1881 15.3568 3.45652 15.823C3.6929 16.2335 4.04289 16.5623 4.46179 16.7673C4.93744 17 5.53918 17 6.74267 17H9.25733C10.4608 17 11.0626 17 11.5382 16.7673C11.9571 16.5623 12.3071 16.2335 12.5435 15.823C12.8119 15.3568 12.8664 14.7404 12.9753 13.5077L13.8333 3.8M6.05556 8.2V12.2M9.94444 8.2V12.2M4.11111 3.8L4.95006 2.28988C5.21106 1.8201 5.34156 1.5852 5.52492 1.41431C5.68716 1.26311 5.8786 1.14884 6.08672 1.07897C6.32195 1 6.58497 1 7.11103 1H8.88897C9.41502 1 9.67805 1 9.91328 1.07897C10.1214 1.14884 10.3128 1.26311 10.4751 1.41431C10.6584 1.5852 10.7889 1.8201 11.0499 2.28988L11.8889 3.8M4.11111 3.8H1M4.11111 3.8H11.8889M11.8889 3.8H15" stroke="black" stroke-width="1.5" stroke-linecap="round" stroke-linejoin="round"/>
</svg>
