<svg width="14" height="14" viewBox="0 0 14 14" fill="none" xmlns="http://www.w3.org/2000/svg">
<path d="M0 2C0 0.89543 0.895431 0 2 0H4C4.27614 0 4.5 0.223858 4.5 0.5C4.5 0.776142 4.27614 1 4 1H2C1.44772 1 1 1.44772 1 2V4C1 4.27614 0.776142 4.5 0.5 4.5C0.223858 4.5 0 4.27614 0 4V2ZM9.5 0.5C9.5 0.223858 9.72386 0 10 0H12C13.1046 0 14 0.895431 14 2V4C14 4.27614 13.7761 4.5 13.5 4.5C13.2239 4.5 13 4.27614 13 4V2C13 1.44772 12.5523 1 12 1H10C9.72386 1 9.5 0.776142 9.5 0.5ZM0.5 9.5C0.776142 9.5 1 9.72386 1 10V12C1 12.5523 1.44772 13 2 13H4C4.27614 13 4.5 13.2239 4.5 13.5C4.5 13.7761 4.27614 14 4 14H2C0.89543 14 0 13.1046 0 12V10C0 9.72386 0.223858 9.5 0.5 9.5ZM13.5 9.5C13.7761 9.5 14 9.72386 14 10V12C14 13.1046 13.1046 14 12 14H10C9.72386 14 9.5 13.7761 9.5 13.5C9.5 13.2239 9.72386 13 10 13H12C12.5523 13 13 12.5523 13 12V10C13 9.72386 13.2239 9.5 13.5 9.5Z" fill="currentColor"/>
</svg>
