<svg width="31" height="32" viewBox="0 0 31 32" fill="none" xmlns="http://www.w3.org/2000/svg">
<path d="M4.75013 0.411851L29.1672 13.1167C30.7595 13.9452 31.3786 15.9076 30.5501 17.4999C30.2421 18.0919 29.7592 18.5747 29.1672 18.8828L4.75013 31.5876C3.15786 32.4161 1.19543 31.797 0.366929 30.2047C0.125863 29.7414 0 29.2268 0 28.7045V3.29492C0 1.5 1.45507 0.0449219 3.25 0.0449219C3.69765 0.0449219 4.13966 0.137393 4.54857 0.315621L4.75013 0.411851ZM3.59618 2.6296L3.4857 2.58292C3.40991 2.55783 3.33035 2.54492 3.25 2.54492C2.83579 2.54492 2.5 2.88071 2.5 3.29492V28.7045C2.5 28.8251 2.52905 28.9438 2.58468 29.0507C2.77587 29.4182 3.22874 29.5611 3.59618 29.3699L28.0132 16.6651C28.1499 16.594 28.2613 16.4825 28.3324 16.3459C28.5236 15.9785 28.3807 15.5256 28.0132 15.3344L3.59618 2.6296Z" fill="currentColor"/>
</svg>
