<svg width="52" height="53" viewBox="0 0 52 53" fill="none" xmlns="http://www.w3.org/2000/svg">
<path d="M51.9032 11.6786V41.5947C51.9032 47.6818 46.961 52.6401 40.8853 52.6401H11.0179C4.94218 52.6401 0 47.6887 0 41.5947V11.6786C0 5.59153 4.94218 0.640137 11.0179 0.640137H40.8853C46.961 0.640137 51.9032 5.59153 51.9032 11.6786Z" fill="#5A9DFF"/>
<path opacity="0.25" d="M52.0001 25.2657V41.5949C52.0001 47.682 47.0579 52.6403 40.9821 52.6403H24.6764L12.594 40.5354L39.3163 12.5652L52.0001 25.2726V25.2657Z" fill="black"/>
<path d="M25.9482 45.9989C36.6218 45.9989 45.2745 37.3301 45.2745 26.6365C45.2745 15.943 36.6218 7.27417 25.9482 7.27417C15.2745 7.27417 6.62183 15.943 6.62183 26.6365C6.62183 37.3301 15.2745 45.9989 25.9482 45.9989Z" fill="white"/>
<path d="M35.8533 28.1462V36.2208C35.8533 38.2706 34.5746 39.5379 32.5079 39.5379H27.4551C18.6628 39.5379 14.6538 32.9522 14.6538 26.8305C14.6538 20.7088 18.1513 13.7422 28.015 13.7422H30.1232C32.3212 13.7422 33.4686 15.4319 33.4686 17.0939C33.4686 18.7559 32.418 20.4525 30.1232 20.4525H27.4482C22.9968 20.4525 20.9715 23.6588 20.9715 26.6366C20.9715 30.3622 23.0797 32.7029 26.6325 32.8968C27.4413 32.8968 28.6232 32.8968 28.9412 32.8968H29.4112V30.9301H27.932C27.1302 30.9301 26.3837 30.6185 25.8169 30.0506C25.2501 29.4828 24.9391 28.7349 24.9391 27.9385C24.9391 26.2903 26.28 24.94 27.932 24.94H32.6461C34.1875 24.9538 35.8464 25.9649 35.8464 28.1462H35.8533Z" fill="#5A9DFF"/>
</svg>
