<svg width="128" height="140" viewBox="0 0 128 140" fill="none" xmlns="http://www.w3.org/2000/svg">
<g clip-path="url(#clip0_145_4374)">
<path opacity="0.15" d="M84.3928 133.296C84.3928 136.991 71.6031 139.99 55.8365 139.99C40.0699 139.99 27.2803 136.991 27.2803 133.296C27.2803 129.602 40.0699 126.603 55.8365 126.603C71.6031 126.603 84.3928 129.602 84.3928 133.296Z" fill="black"/>
<path d="M13.0591 115.925C17.1551 115.925 20.4756 112.603 20.4756 108.505C20.4756 104.407 17.1551 101.085 13.0591 101.085C8.96307 101.085 5.64258 104.407 5.64258 108.505C5.64258 112.603 8.96307 115.925 13.0591 115.925Z" fill="#234F7A"/>
<path d="M67.5476 118.685C69.8907 118.685 71.7901 116.785 71.7901 114.441C71.7901 112.097 69.8907 110.196 67.5476 110.196C65.2046 110.196 63.3052 112.097 63.3052 114.441C63.3052 116.785 65.2046 118.685 67.5476 118.685Z" fill="#15365E"/>
<path d="M77.8061 132.207H65.0787C63.8547 132.207 62.8589 131.21 62.8589 129.986V118.602C62.8589 117.844 63.2427 117.139 63.8858 116.744L71.572 111.898C72.101 111.566 72.8064 111.846 72.9516 112.459L77.7957 132.207H77.8061Z" fill="#D7EBFF"/>
<path d="M75.8355 123.894L73.5327 132.207H80.1194C81.053 132.207 81.5716 131.127 80.9907 130.401L75.8251 123.905L75.8355 123.894Z" fill="#FF5B00"/>
<path d="M47.9844 114.441C47.9844 116.786 46.0862 118.685 43.742 118.685C41.3977 118.685 39.4995 116.786 39.4995 114.441C39.4995 112.095 41.3977 110.196 43.742 110.196C46.0862 110.196 47.9844 112.095 47.9844 114.441Z" fill="#15365E"/>
<path d="M33.5249 132.207H46.2523C47.4763 132.207 48.4721 131.21 48.4721 129.986V118.602C48.4721 117.844 48.0883 117.139 47.4452 116.744L39.7589 111.898C39.2299 111.566 38.5246 111.846 38.3794 112.459L33.5353 132.207H33.5249Z" fill="#D7EBFF"/>
<path d="M35.5576 123.894L37.8604 132.207H31.2737C30.3401 132.207 29.8215 131.127 30.4024 130.401L35.568 123.905L35.5576 123.894Z" fill="#FF5B00"/>
<path d="M38.3563 68.0805L68.1992 66.0032C70.7551 65.8253 72.9687 67.7517 73.1465 70.3087L74.8607 94.9575C75.2934 101.179 70.595 106.583 64.376 107.015L47.83 108.167C41.611 108.6 36.2099 103.9 35.7772 97.6779L34.063 73.0292C33.8852 70.4722 35.8108 68.2577 38.3667 68.0798L38.3563 68.0805Z" fill="#D7EBFF"/>
<path d="M73.9063 81.062L34.8125 83.7831L34.9551 85.8329L74.0489 83.1117L73.9063 81.062Z" fill="#15365E"/>
<path d="M45.1004 89.2135C48.0793 89.2135 50.4942 86.7976 50.4942 83.8173C50.4942 80.8371 48.0793 78.4211 45.1004 78.4211C42.1214 78.4211 39.7065 80.8371 39.7065 83.8173C39.7065 86.7976 42.1214 89.2135 45.1004 89.2135Z" fill="#D7EBFF"/>
<path d="M38.7006 84.2636C38.4517 80.7249 41.1279 77.6532 44.665 77.4042C46.3765 77.29 48.0361 77.84 49.3223 78.9711C50.6189 80.1023 51.3969 81.6589 51.511 83.3711C51.7599 86.9098 49.0838 89.9815 45.5466 90.2305C45.3911 90.2305 45.2458 90.2513 45.1006 90.2513C41.7606 90.2513 38.9288 87.6569 38.7006 84.2739V84.2636ZM49.4676 83.5164C49.3846 82.3541 48.8556 81.2853 47.9739 80.5277C47.0922 79.7598 45.9719 79.3759 44.7998 79.4693C42.4037 79.6353 40.5781 81.7315 40.7441 84.1287C40.91 86.5362 43.0053 88.3522 45.4014 88.1862C47.7975 88.0202 49.6231 85.9239 49.4572 83.5268L49.4676 83.5164Z" fill="#15365E"/>
<path d="M94.3611 41.4261L85.8866 45.7327L82.2354 13.0027L91.4567 15.3376C92.9919 15.7216 94.1329 17.0291 94.3093 18.6065L96.4357 37.6177C96.612 39.195 95.7926 40.7101 94.3819 41.4365L94.3611 41.4261Z" fill="#FF5B00"/>
<path d="M5.47701 51.3468L14.6984 53.6817L11.0472 20.9517L2.57263 25.2583C1.16194 25.9743 0.342488 27.4998 0.518826 29.0771L2.64524 48.0883C2.82158 49.6657 3.95221 50.9628 5.49776 51.3572L5.47701 51.3468Z" fill="#FF5B00"/>
<path d="M87.152 15.1093L90.2223 42.5884C90.4713 44.861 90.2742 47.1233 89.6311 49.3129C89.0087 51.4195 87.9922 53.36 86.6126 55.0826C85.233 56.8053 83.5734 58.2166 81.6544 59.2958C79.6628 60.4062 77.5053 61.1015 75.2337 61.3609L28.5458 66.5807C26.2742 66.8297 24.0129 66.6326 21.8243 65.9892C19.7186 65.3665 17.7789 64.3496 16.057 62.9694C14.3351 61.5892 12.9141 59.9288 11.8457 58.009C10.7254 56.0166 10.0408 53.8581 9.78148 51.5855L6.71114 24.1064C6.4622 21.8338 6.65928 19.5716 7.30239 17.382C7.92476 15.2754 8.94129 13.3348 10.3209 11.6122C11.6901 9.88955 13.3601 8.46786 15.2791 7.399C17.2706 6.27825 19.4282 5.59335 21.6998 5.33392L68.3876 0.103767C70.6593 -0.145288 72.9205 0.0518808 75.1092 0.695273C77.2149 1.31791 79.1546 2.33488 80.8765 3.71506C82.5983 5.09524 84.009 6.75561 85.0878 8.67541C86.2081 10.6678 86.8927 12.8263 87.152 15.099V15.1093Z" fill="#D7EBFF"/>
<path d="M25.7272 9.76317L72.4154 4.54873C77.4976 3.98111 82.0815 7.64586 82.6488 12.7303L85.7158 40.215C86.2832 45.2994 82.62 49.8853 77.5378 50.4529L30.8496 55.6673C25.7674 56.2349 21.1836 52.5702 20.6162 47.4858L17.5492 20.001C16.9818 14.9166 20.645 10.3308 25.7272 9.76317Z" fill="#15365E"/>
<path d="M6.86658 122.877C7.89348 122.877 8.86853 122.286 9.30418 121.279C11.4513 116.392 13.2873 112.355 13.2977 112.345C13.9097 111.006 13.3081 109.418 11.97 108.816C10.6319 108.204 9.04486 108.806 8.44324 110.145C8.44324 110.145 6.59689 114.212 4.42898 119.131C3.83773 120.48 4.44972 122.058 5.79818 122.649C6.15086 122.805 6.51391 122.877 6.87695 122.877H6.86658Z" fill="#15365E"/>
<path d="M2.66579 116.485C3.51636 116.485 4.35655 116.08 4.87519 115.323C7.53062 111.431 9.22138 110.705 9.23175 110.695C9.11765 110.746 9.05542 110.746 9.05542 110.746L7.70696 105.579C6.94975 105.776 4.20096 106.845 0.466764 112.303C-0.363058 113.517 -0.0518749 115.178 1.16174 116.008C1.61814 116.319 2.14715 116.475 2.66579 116.475V116.485Z" fill="#15365E"/>
<path d="M15.1959 123.562C15.2893 123.562 15.3826 123.562 15.476 123.552C16.9386 123.396 18.007 122.089 17.8514 120.615C17.2912 115.302 16.8867 110.881 16.8867 110.881C16.7519 109.418 15.4553 108.339 13.9823 108.474C12.5198 108.609 11.441 109.916 11.5758 111.379C11.5758 111.379 11.9907 115.831 12.5509 121.176C12.6961 122.545 13.8475 123.562 15.1959 123.562Z" fill="#15365E"/>
<path d="M21.6685 119.225C22.1249 119.225 22.5917 119.11 23.017 118.861C24.2929 118.114 24.7181 116.485 23.9713 115.209C21.2744 110.601 19.065 106.741 19.065 106.741C18.3389 105.464 16.7104 105.018 15.4241 105.745C14.1483 106.471 13.7023 108.111 14.4284 109.387C14.4284 109.387 16.6481 113.268 19.3658 117.907C19.8637 118.758 20.7557 119.225 21.6685 119.225Z" fill="#15365E"/>
<path d="M13.0591 115.925C17.1551 115.925 20.4756 112.603 20.4756 108.505C20.4756 104.407 17.1551 101.085 13.0591 101.085C8.96307 101.085 5.64258 104.407 5.64258 108.505C5.64258 112.603 8.96307 115.925 13.0591 115.925Z" fill="#0264B5"/>
<path d="M23.1933 83.89C26.7451 83.89 29.6244 81.0094 29.6244 77.4561C29.6244 73.9027 26.7451 71.0222 23.1933 71.0222C19.6415 71.0222 16.7622 73.9027 16.7622 77.4561C16.7622 81.0094 19.6415 83.89 23.1933 83.89Z" fill="#15365E"/>
<path d="M31.6601 82.2954L24.3752 104.128C23.6559 106.284 21.3199 107.451 19.1651 106.731L8.86367 103.291C6.70892 102.571 5.5422 100.234 6.2615 98.0785L13.5464 76.246C13.8782 75.2519 14.9543 74.7141 15.948 75.046L30.4705 79.896C31.4642 80.2279 32.0017 81.3045 31.6699 82.2986L31.6601 82.2954Z" fill="#D7EBFF"/>
<path d="M84.0609 80.3825C87.7502 80.3825 90.741 77.3904 90.741 73.6995C90.741 70.0086 87.7502 67.0165 84.0609 67.0165C80.3716 67.0165 77.3809 70.0086 77.3809 73.6995C77.3809 77.3904 80.3716 80.3825 84.0609 80.3825Z" fill="#15365E"/>
<path d="M84.407 62.9733L107.943 58.8808C110.273 58.4756 112.492 60.0383 112.897 62.3694L114.828 73.4829C115.233 75.814 113.671 78.0342 111.341 78.4393L87.805 82.5318C86.732 82.7184 85.7123 82.0004 85.5258 80.9269L82.8046 65.2637C82.6181 64.1902 83.3358 63.1701 84.4088 62.9835L84.407 62.9733Z" fill="#D7EBFF"/>
<path d="M114.775 63.5401C114.899 63.5401 115.024 63.5401 115.138 63.5194C116.6 63.3222 117.617 61.9731 117.42 60.5099C117.399 60.3854 116.351 52.3326 118.498 46.1374C118.976 44.7468 118.239 43.2214 116.849 42.744C115.459 42.2667 113.934 43.0035 113.457 44.394C110.885 51.8449 112.088 60.8628 112.14 61.2364C112.327 62.575 113.468 63.5401 114.775 63.5401Z" fill="#15365E"/>
<path d="M109.567 68.075C110.107 68.075 110.657 67.909 111.134 67.5665C112.316 66.7052 112.586 65.0448 111.725 63.8514C111.611 63.6854 109.422 60.4996 110.999 57.6354C111.715 56.3487 111.248 54.7194 109.951 54.0138C108.665 53.2977 107.036 53.7751 106.331 55.0619C103.084 60.9354 107.223 66.7363 107.399 66.9854C107.918 67.7014 108.738 68.0854 109.557 68.0854L109.567 68.075Z" fill="#15365E"/>
<path d="M119.173 63.0524C120.397 63.0524 121.496 62.2118 121.777 60.9665C121.777 60.925 122.648 57.0854 123.561 54.5638C124.059 53.1836 123.353 51.6477 121.963 51.1496C120.584 50.6411 119.048 51.3572 118.551 52.7477C117.513 55.6015 116.611 59.6382 116.569 59.8147C116.248 61.2571 117.15 62.6788 118.592 63.0005C118.789 63.042 118.986 63.0628 119.173 63.0628V63.0524Z" fill="#15365E"/>
<path d="M120.449 68.3552C121.175 68.3552 121.89 68.0646 122.419 67.4939C122.533 67.3693 125.137 64.4948 127.71 59.4826C128.384 58.1751 127.865 56.5666 126.558 55.8921C125.251 55.2175 123.643 55.7364 122.969 57.0439C120.749 61.3713 118.498 63.8722 118.478 63.8929C117.492 64.9826 117.565 66.6741 118.654 67.6599C119.162 68.1269 119.805 68.3552 120.449 68.3552Z" fill="#15365E"/>
<path d="M116.735 73.6995C121.685 73.6995 125.697 69.6853 125.697 64.7336C125.697 59.7818 121.685 55.7676 116.735 55.7676C111.785 55.7676 107.773 59.7818 107.773 64.7336C107.773 69.6853 111.785 73.6995 116.735 73.6995Z" fill="#0264B5"/>
<path d="M47.777 14.4452C46.5219 12.9716 41.5533 13.4386 41.0554 15.6593C40.5679 17.8801 42.1653 32.0866 43.7938 33.7366C45.4223 35.3866 49.6856 34.8366 50.2042 33.0102C50.7436 31.1111 49.4159 16.365 47.777 14.4348V14.4452Z" fill="white"/>
<path d="M57.0916 13.4801C58.0666 11.7783 63.2841 11.2179 64.2592 13.283C65.2342 15.3584 66.5827 29.5857 65.2549 31.547C63.9583 33.4564 59.4254 33.8404 58.5126 32.1592C57.5998 30.4781 55.8157 15.7112 57.1019 13.4801H57.0916Z" fill="white"/>
<path d="M54.9132 41.4884C43.9388 42.6092 42.5281 39.2677 39.157 39.5479C37.4247 39.6931 39.157 48.0365 55.4111 46.3657C71.6652 44.695 72.0387 37.2441 69.933 37.1403C68.2111 37.0469 66.4477 40.3054 54.9132 41.4884Z" fill="white"/>
</g>
<defs>
<clipPath id="clip0_145_4374">
<rect width="128" height="140" fill="white"/>
</clipPath>
</defs>
</svg>
