<svg viewBox="0 0 273 220" fill="none" xmlns="http://www.w3.org/2000/svg">
<circle cx="110" cy="110" r="110" fill="#9DBDD6"/>
<mask id="mask0_157_5827" style="mask-type:alpha" maskUnits="userSpaceOnUse" x="0" y="0" width="288" height="220">
<path fill-rule="evenodd" clip-rule="evenodd" d="M110 0H288V181.63H193.484C173.31 205.12 143.393 220 110 220C76.6072 220 46.6896 205.12 26.5159 181.63H0V110V0H110Z" fill="#D9D9D9"/>
</mask>
<g mask="url(#mask0_157_5827)">
<path d="M89.2043 167.043L145.78 163.11C150.625 162.773 154.821 166.421 155.159 171.262L158.408 217.931C159.229 229.711 150.322 239.942 138.532 240.762L107.164 242.942C95.3744 243.762 85.1352 234.862 84.3149 223.082L81.0652 176.413C80.7281 171.572 84.3785 167.379 89.2239 167.042L89.2043 167.043Z" fill="#D7EBFF"/>
<path d="M156.558 191.623L82.4453 196.776L82.7156 200.657L156.829 195.504L156.558 191.623Z" fill="#15365E"/>
<path d="M102.628 206.724C108.275 206.724 112.853 202.15 112.853 196.507C112.853 190.864 108.275 186.29 102.628 186.29C96.9805 186.29 92.4023 190.864 92.4023 196.507C92.4023 202.15 96.9805 206.724 102.628 206.724Z" fill="#D7EBFF"/>
<path d="M90.4757 197.352C90.0038 190.652 95.0772 184.836 101.783 184.365C105.027 184.129 108.174 185.19 110.632 187.332C113.09 189.473 114.565 192.42 114.781 195.662C115.017 198.904 113.955 202.048 111.831 204.484C109.708 206.94 106.738 208.414 103.494 208.63C103.199 208.63 102.923 208.669 102.648 208.669C96.3161 208.669 90.9477 203.757 90.5151 197.352H90.4757ZM102.038 188.255C97.4959 188.569 94.035 192.538 94.3496 197.077C94.6643 201.616 98.6168 205.074 103.179 204.759C105.381 204.602 107.407 203.6 108.842 201.93C110.297 200.26 111.005 198.138 110.848 195.937C110.691 193.737 109.688 191.713 108.016 190.279C106.502 188.962 104.595 188.255 102.589 188.255C102.392 188.255 102.196 188.255 101.999 188.275L102.038 188.255Z" fill="#15365E"/>
<path d="M193.045 111.155L177.451 120.194L167.068 58.7146L184.766 62.153C187.716 62.7228 189.997 65.061 190.508 68.0278L196.545 103.748C197.037 106.715 195.66 109.662 193.065 111.175L193.045 111.155Z" fill="#FF5B00"/>
<path d="M25.8775 139.351L43.5755 142.789L33.1927 81.3104L17.5988 90.3485C15.0031 91.8614 13.607 94.8086 14.1182 97.7755L20.1552 133.496C20.6468 136.463 22.9475 138.801 25.8972 139.371L25.8775 139.351Z" fill="#FF5B00"/>
<path d="M176.624 62.173L185.335 113.808C186.063 118.091 185.925 122.375 184.922 126.579C183.959 130.627 182.248 134.399 179.829 137.799C177.411 141.198 174.402 144.047 170.882 146.287C167.244 148.605 163.213 150.157 158.946 150.865L71.1245 165.66C66.8376 166.387 62.5508 166.249 58.3426 165.247C54.2917 164.284 50.5162 162.575 47.1142 160.158C43.7123 157.741 40.8609 154.735 38.6192 151.218C36.2988 147.583 34.7453 143.555 34.0374 139.292L25.3261 87.6566C24.5985 83.3733 24.7361 79.09 25.739 74.8853C26.7026 70.8378 28.4134 67.0654 30.8321 63.6663C33.2508 60.2671 36.2595 57.4182 39.7794 55.1783C43.4173 52.8598 47.4289 51.3273 51.7157 50.6003L139.517 35.8053C143.804 35.0783 148.091 35.2158 152.299 36.2179C156.35 37.1806 160.126 38.89 163.528 41.3067C166.929 43.7234 169.781 46.7296 172.023 50.2466C174.343 53.8815 175.877 57.8897 176.604 62.173H176.624Z" fill="#D7EBFF"/>
<path d="M148.335 47.5891L60.5166 62.3986C50.9536 64.0113 44.5096 73.0646 46.1236 82.6197L54.8452 134.252C56.4593 143.807 65.5201 150.245 75.0831 148.633L162.901 133.823C172.464 132.21 178.908 123.157 177.294 113.602L168.573 61.9701C166.959 52.415 157.898 45.9764 148.335 47.5891Z" fill="#0F441A"/>
<path d="M56.1021 196.743C62.8355 196.743 68.294 191.289 68.294 184.561C68.294 177.833 62.8355 172.379 56.1021 172.379C49.3687 172.379 43.9102 177.833 43.9102 184.561C43.9102 191.289 49.3687 196.743 56.1021 196.743Z" fill="#15365E"/>
<path d="M73.8538 189.674L70.189 233.099C69.8271 237.387 66.0451 240.578 61.7538 240.216L41.238 238.488C36.9467 238.126 33.753 234.347 34.1148 230.06L37.7797 186.634C37.9465 184.657 39.6888 183.187 41.6679 183.353L70.5899 185.79C72.569 185.957 74.0403 187.698 73.8734 189.675L73.8538 189.674Z" fill="#D7EBFF"/>
<path d="M248.164 153.222C249.344 153.222 250.524 152.869 251.546 152.122C254.987 149.627 260.533 142.298 259.333 130.627C259.019 127.503 256.246 125.243 253.1 125.558C249.973 125.872 247.711 128.662 248.026 131.786C248.813 139.645 244.919 142.887 244.762 143.025C242.225 144.872 241.714 148.369 243.543 150.904C244.644 152.417 246.394 153.222 248.144 153.222H248.164Z" fill="#15365E"/>
<path d="M251.526 153.32C252.037 153.32 252.568 153.242 253.08 153.104C253.237 153.065 258.055 151.768 267.336 151.729C270.483 151.729 273 149.155 272.98 146.031C272.98 142.907 270.424 140.392 267.297 140.392H267.277C256.285 140.451 250.543 142.042 249.933 142.219C246.925 143.103 245.194 146.247 246.079 149.253C246.807 151.729 249.068 153.34 251.526 153.34V153.32Z" fill="#15365E"/>
<path d="M251.448 162.437C251.959 162.437 252.49 162.358 253.021 162.221C253.179 162.182 257.996 160.885 267.278 160.845C270.405 160.845 272.941 158.272 272.922 155.147C272.922 152.023 270.365 149.508 267.239 149.508H267.199C256.207 149.567 250.465 151.159 249.855 151.336C246.847 152.22 245.116 155.364 246.001 158.37C246.729 160.845 248.99 162.457 251.448 162.457V162.437Z" fill="#15365E"/>
<path d="M252.53 170.08C255.184 170.08 259.078 169.687 264.643 168.312C267.691 167.565 269.559 164.48 268.812 161.435C268.064 158.39 264.977 156.523 261.929 157.289C254.28 159.176 251.33 158.645 251.291 158.645C251.546 158.684 251.645 158.743 251.645 158.743L248.164 169.55C248.852 169.766 250.209 170.08 252.53 170.08Z" fill="#15365E"/>
<path d="M244.33 170.159C253.05 170.159 260.12 163.095 260.12 154.382C260.12 145.668 253.05 138.604 244.33 138.604C235.609 138.604 228.539 145.668 228.539 154.382C228.539 163.095 235.609 170.159 244.33 170.159Z" fill="#0264B5"/>
<path d="M183.822 178.765C190.816 178.765 196.486 173.1 196.486 166.112C196.486 159.123 190.816 153.458 183.822 153.458C176.828 153.458 171.158 159.123 171.158 166.112C171.158 173.1 176.828 178.765 183.822 178.765Z" fill="#15365E"/>
<path d="M184.279 146.972L228.897 139.223C233.314 138.456 237.521 141.415 238.289 145.828L241.949 166.87C242.717 171.284 239.756 175.488 235.339 176.255L190.72 184.003C188.686 184.357 186.753 182.997 186.4 180.965L181.241 151.308C180.887 149.276 182.248 147.344 184.282 146.991L184.279 146.972Z" fill="#D7EBFF"/>
<path d="M75.452 102.707C78.4213 120.823 95.549 134.517 115.253 131.275C134.976 128.033 146.932 109.584 143.825 91.5076C140.993 73.3527 123.728 59.717 104.044 62.9393C84.301 66.1615 72.463 84.6308 75.4323 102.687L75.452 102.707Z" fill="#009540"/>
<path d="M107.053 114.908C105.893 115.321 104.536 115.164 103.455 114.378L89.7291 104.495C87.9593 103.218 87.566 100.762 88.8442 99.0131C90.1224 97.2448 92.5804 96.8519 94.3306 98.129L104.851 105.713L121.703 82.3319C122.982 80.5636 125.44 80.1706 127.19 81.4477C128.96 82.7249 129.353 85.1809 128.075 86.9296L108.922 113.494C108.43 114.181 107.761 114.653 107.014 114.908H107.053Z" fill="white"/>
</g>
</svg>
