<svg width="485" height="500" viewBox="0 0 485 500" fill="none" xmlns="http://www.w3.org/2000/svg">
<mask id="mask0_95_5070" style="mask-type:alpha" maskUnits="userSpaceOnUse" x="0" y="0" width="485" height="500">
<rect width="485" height="500" rx="20" transform="matrix(-1 0 0 1 485 0)" fill="white"/>
</mask>
<g mask="url(#mask0_95_5070)">
<path d="M-50.9284 487.297C-34.9284 495.449 -15.3526 489.095 -7.2047 473.103C0.943222 457.112 -5.42217 437.54 -21.4222 429.388C-37.4222 421.235 -56.998 427.59 -65.1459 443.581C-73.2939 459.572 -66.9285 479.144 -50.9284 487.297Z" fill="#234F7A"/>
<path d="M38.5039 537.252C47.6564 541.915 58.8543 538.28 63.5151 529.133C68.176 519.985 64.5348 508.789 55.3823 504.126C46.2298 499.463 35.032 503.097 30.3711 512.245C25.7103 521.392 29.3514 532.588 38.5039 537.252Z" fill="#15365E"/>
<path d="M-28.3122 569.621L21.4038 594.953C26.185 597.389 32.0556 595.483 34.4904 590.705L57.1256 546.281C58.6318 543.324 58.5357 539.807 56.8077 536.988L36.4195 502.778C35.0134 500.43 31.701 500.119 29.9164 502.219L-28.2717 569.642L-28.3122 569.621Z" fill="#D7EBFF"/>
<path d="M118.11 329.063L238.814 380.354C249.152 384.746 253.968 396.67 249.578 407.002L207.264 506.602C196.583 531.743 167.486 543.477 142.333 532.789L75.4102 504.351C50.2567 493.663 38.5051 464.57 49.1858 439.43L91.5002 339.83C95.8898 329.497 107.815 324.688 118.152 329.081L118.11 329.063Z" fill="#D7EBFF"/>
<path d="M231.082 450.439L72.9624 383.248L69.4436 391.531L227.563 458.721L231.082 450.439Z" fill="#15365E"/>
<path d="M103.996 425.143C115.633 431.072 129.87 426.45 135.795 414.82C141.721 403.191 137.092 388.956 125.455 383.027C113.819 377.098 99.582 381.72 93.6562 393.35C87.7304 404.979 92.3598 419.214 103.996 425.143Z" fill="#D7EBFF"/>
<path d="M88.6187 414.655C85.803 407.661 85.8592 400.038 88.8181 393.129C91.7364 386.199 97.2258 380.835 104.181 378.002C111.136 375.17 118.802 375.25 125.714 378.211C139.985 384.36 146.696 400.838 140.633 415.143C134.569 429.448 118.008 436.108 103.696 430.04C103.067 429.771 102.479 429.522 101.872 429.212C95.8345 426.136 91.1339 421.038 88.5981 414.696L88.6187 414.655ZM122.196 386.518C117.493 384.53 112.267 384.469 107.556 386.404C102.804 388.319 99.1164 391.949 97.1089 396.69C95.1221 401.391 95.0633 406.615 97.001 411.326C98.9182 416.077 102.571 419.826 107.255 421.753C116.985 425.895 128.244 421.328 132.362 411.643C136.48 401.958 131.987 390.742 122.237 386.539L122.196 386.518Z" fill="#15365E"/>
<path d="M390.765 322.894L349.143 325.151L392.312 187.538L425.168 213.206C430.647 217.477 432.892 224.691 430.83 231.342L405.757 311.302C403.654 317.933 397.722 322.562 390.785 322.955L390.765 322.894Z" fill="#FF5B00"/>
<path d="M16.7094 205.502L49.565 231.169L92.7343 93.5566L51.1117 95.8132C44.1745 96.2062 38.2026 100.815 36.1404 107.466L11.0674 187.426C8.9647 194.057 11.2499 201.292 16.7293 205.563L16.7094 205.502Z" fill="#FF5B00"/>
<path d="M408.372 204.699L372.096 320.268C369.097 329.86 364.316 338.544 357.834 346.157C351.598 353.488 344.111 359.467 335.558 363.933C327.004 368.4 317.813 371.113 308.208 372.034C298.277 372.993 288.341 371.96 278.806 368.938L82.3135 307.23C72.7171 304.228 64.0285 299.444 56.4099 292.961C49.0741 286.723 43.0898 279.236 38.618 270.684C34.1463 262.131 31.4281 252.942 30.5024 243.339C29.5385 233.412 30.5675 223.479 33.5863 213.948L69.8622 98.3788C72.8611 88.7868 77.6429 80.1032 84.125 72.4899C90.3609 65.1594 97.8477 59.1803 106.401 54.7138C114.954 50.2474 124.146 47.5342 133.751 46.6131C143.681 45.6539 153.557 46.7068 163.153 49.7091L359.605 111.396C369.201 114.398 377.89 119.183 385.508 125.666C392.844 131.903 398.828 139.39 403.3 147.943C407.772 156.495 410.49 165.685 411.416 175.287C412.38 185.215 411.331 195.086 408.332 204.678L408.372 204.699Z" fill="#D7EBFF"/>
<path d="M156.922 68.2131L353.422 129.888C374.812 136.601 386.726 159.395 380.02 180.775L343.769 296.348C337.063 317.728 314.267 329.628 292.877 322.915L96.3758 261.24C74.9859 254.527 63.0721 231.733 69.7782 210.353L106.03 94.7793C112.736 73.3994 135.532 61.4996 156.922 68.2131Z" fill="#15365E"/>
<path d="M219.337 119.042C216.878 110.545 194.589 102.402 188.084 110.463C181.578 118.523 160.326 179.465 164.055 189.475C167.684 199.282 187.178 205.797 193.02 199.439C199.109 192.798 222.528 130.207 219.337 119.042Z" fill="white"/>
<path d="M320.27 183.987C319.525 188.555 311.802 179.672 294.707 175.961C291.336 175.264 287.334 174.704 282.924 174.344C293.198 179.324 296.166 187.722 295.067 190.58C293.884 193.803 289.75 186.29 278.236 181.341C267.027 176.497 241.856 173.109 241.495 169.711C241.454 169.69 241.455 169.589 241.476 169.548C241.395 169.507 241.395 169.405 241.437 169.324C242.063 164.389 271.873 161.776 292.921 164.441C312.749 166.995 320.974 179.5 320.27 183.987Z" fill="white"/>
<path d="M313.071 219.953C323.726 230.994 301.151 300.341 187.975 265.935C131.407 248.742 117.532 219.178 125.633 215.501C134.284 211.543 131.753 232.137 189.328 247.853C269.958 269.909 304.271 210.879 313.071 219.953Z" fill="white"/>
<path d="M-30.327 506.363C-30.0029 506.528 -29.7192 506.673 -29.3744 506.798C-23.4137 509.223 -16.5801 506.328 -14.157 500.371C-3.88369 475 -9.39808 461.682 -10.6208 459.274L-31.5212 469.742C-31.5212 469.742 -31.6619 469.517 -31.821 469.028C-31.8011 469.09 -29.5549 476.1 -35.8103 491.582C-38.089 497.256 -35.6349 503.659 -30.2865 506.384L-30.327 506.363Z" fill="#15365E"/>
<path d="M-50.9284 487.297C-34.9284 495.449 -15.3526 489.095 -7.2047 473.103C0.943222 457.112 -5.42217 437.54 -21.4222 429.388C-37.4222 421.235 -56.998 427.59 -65.1459 443.581C-73.2939 459.572 -66.9285 479.144 -50.9284 487.297Z" fill="#0264B5"/>
<path d="M29.2497 360.89C43.1238 367.959 60.0986 362.449 67.1639 348.582C74.2293 334.716 68.7096 317.744 54.8355 310.675C40.9613 303.606 23.9865 309.116 16.9212 322.982C9.85586 336.849 15.3755 353.821 29.2497 360.89Z" fill="#15365E"/>
<path d="M73.2546 364.964L20.0995 450.619C14.8511 459.076 3.70711 461.682 -4.75533 456.432L-45.2128 431.33C-53.6752 426.08 -56.2875 414.938 -51.0391 406.481L2.11603 320.826C4.53653 316.926 9.67025 315.725 13.573 318.146L70.6076 353.533C74.5104 355.955 75.7138 361.087 73.2933 364.988L73.2546 364.964Z" fill="#D7EBFF"/>
<path d="M418.162 338.741C423.592 341.507 430.316 339.629 433.466 334.348C433.466 334.348 443.513 317.635 455.739 297.747C459.114 292.224 457.419 285.035 451.892 281.658C446.284 278.239 439.175 279.973 435.799 285.496C423.45 305.525 413.362 322.319 413.362 322.319C410.027 327.863 411.824 335.053 417.392 338.349C417.635 338.473 417.879 338.597 418.122 338.72L418.162 338.741Z" fill="#15365E"/>
<path d="M395.139 330.938L417.119 322.958C417.119 322.958 417.24 323.223 417.378 323.753C417.358 323.692 415.79 315.751 423.232 296.538C425.533 290.518 422.594 283.766 416.531 281.442C410.508 279.139 403.735 282.115 401.433 288.134C391.026 315.171 394.004 327.758 395.18 330.959L395.139 330.938Z" fill="#15365E"/>
<path d="M426.042 351.122C429.405 352.835 433.513 352.888 437.065 350.923C437.065 350.923 454.054 341.42 474.615 330.217C480.27 327.131 482.356 320.032 479.266 314.377C476.176 308.722 469.074 306.633 463.419 309.72C442.777 320.983 425.645 330.566 425.645 330.566C420.009 333.714 418.004 340.854 421.155 346.489C422.34 348.572 424.077 350.171 426.062 351.183L426.042 351.122Z" fill="#15365E"/>
<path d="M421.303 367.835C423.167 368.785 425.319 369.27 427.578 369.043C427.578 369.043 446.99 367.406 470.327 365.677C476.757 365.179 481.597 359.586 481.136 353.178C480.634 346.751 475.037 341.909 468.628 342.368C445.148 344.075 425.614 345.752 425.614 345.752C419.164 346.291 414.405 351.925 414.947 358.374C415.323 362.544 417.839 366.019 421.324 367.795L421.303 367.835Z" fill="#15365E"/>
<path d="M404.252 371.951C420.252 380.103 439.828 373.749 447.976 357.758C456.124 341.766 449.758 322.194 433.758 314.042C417.758 305.889 398.182 312.244 390.034 328.235C381.887 344.226 388.252 363.798 404.252 371.951Z" fill="#234F7A"/>
<path d="M404.252 371.951C420.252 380.103 439.828 373.749 447.976 357.758C456.124 341.766 449.758 322.194 433.758 314.042C417.758 305.889 398.182 312.244 390.034 328.235C381.887 344.226 388.252 363.798 404.252 371.951Z" fill="#0264B5"/>
<path d="M284.145 464.036C298.556 471.379 316.188 465.655 323.526 451.252C330.865 436.849 325.132 419.22 310.721 411.877C296.31 404.534 278.678 410.258 271.339 424.661C264 439.065 269.733 456.693 284.145 464.036Z" fill="#15365E"/>
<path d="M277.939 398.138L361.19 334.677C369.433 328.394 381.223 329.984 387.511 338.226L417.492 377.521C423.78 385.763 422.195 397.549 413.953 403.832L330.701 467.293C326.906 470.186 321.489 469.456 318.593 465.66L276.338 410.279C273.442 406.483 274.171 401.068 277.966 398.174L277.939 398.138Z" fill="#D7EBFF"/>
</g>
</svg>
