<svg width="17" height="15" viewBox="0 0 17 15" fill="none" xmlns="http://www.w3.org/2000/svg">
<path d="M9.16406 14.6641C8.98177 14.6641 8.82552 14.599 8.69531 14.4688C8.5651 14.3385 8.5 14.1823 8.5 14C8.5 13.8177 8.5651 13.6615 8.69531 13.5312L14.2266 8H1.16406C0.981771 8 0.825521 7.9349 0.695312 7.80469C0.565104 7.67448 0.5 7.51823 0.5 7.33594C0.5 7.24219 0.515625 7.15625 0.546875 7.07812C0.583333 6.99479 0.630208 6.92448 0.6875 6.86719C0.75 6.80469 0.820312 6.75521 0.898438 6.71875C0.981771 6.68229 1.07031 6.66406 1.16406 6.66406H14.2188L8.69531 1.14062C8.5651 1.01042 8.5 0.851562 8.5 0.664062C8.5 0.481771 8.5651 0.325521 8.69531 0.195312C8.82552 0.0651042 8.98177 0 9.16406 0C9.35156 0 9.51042 0.0651042 9.64062 0.195312L16.2812 6.83594C16.3542 6.90885 16.4089 6.98438 16.4453 7.0625C16.4818 7.14062 16.5 7.23177 16.5 7.33594C16.5 7.4401 16.4792 7.53125 16.4375 7.60938C16.401 7.6875 16.3464 7.76302 16.2734 7.83594L9.64062 14.4688C9.51042 14.599 9.35156 14.6641 9.16406 14.6641Z" fill="white"/>
</svg>
