<svg xmlns="http://www.w3.org/2000/svg" viewBox="0 0 64 64"><radialGradient id="a" cx="32" cy="32" r="33.002" gradientUnits="userSpaceOnUse" spreadMethod="reflect"><stop offset="0" stop-color="#efdcb1"/><stop offset="0" stop-color="#f2e0bb"/><stop offset=".011" stop-color="#f2e0bc"/><stop offset=".362" stop-color="#f9edd2"/><stop offset=".699" stop-color="#fef4df"/><stop offset="1" stop-color="#fff7e4"/></radialGradient><path fill="url(#a)" d="M55.454 45.668c.5.898 1.504 1.337 2.532 1.332a3 3 0 0 1 3.002 3.262C60.855 51.838 59.434 53 57.852 53H48v1H7a3 3 0 0 1-2.996-3.161C4.089 49.216 5.545 48 7.17 48H8a2.002 2.002 0 0 0 1.973-2.336C9.813 44.681 8.889 44 7.893 44H3a3 3 0 0 1-2.996-3.161C.089 39.216 1.545 38 3.17 38H9.5a2.5 2.5 0 1 0 0-5 2.5 2.5 0 1 1 0-5H18v-7h-7.5a3.5 3.5 0 0 1-3.495-3.688C7.104 15.419 8.803 14 10.698 14H18v-4h38.5a3.5 3.5 0 0 1 3.495 3.688C59.896 15.581 58.197 17 56.302 17H53.5a3.5 3.5 0 0 0-3.495 3.688C50.104 22.581 51.803 24 53.698 24H56a3 3 0 0 1 2.978 3.366c-.179 1.509-1.546 2.572-3.064 2.635a2.002 2.002 0 0 0-1.874 2.406c.188.948 1.083 1.593 2.049 1.593H60.5a3.5 3.5 0 0 1 3.495 3.688C63.896 39.581 62.197 41 60.302 41H58c-2.192 0-3.834 2.35-2.546 4.668zM2.5 33a2.5 2.5 0 1 0 0-5 2.5 2.5 0 1 0 0 5zm0 0a2.5 2.5 0 1 0 0-5 2.5 2.5 0 1 0 0 5z"/><linearGradient id="b" x1="33" x2="33" y1="58" y2="6" gradientUnits="userSpaceOnUse" spreadMethod="reflect"><stop offset="0" stop-color="#41bfec"/><stop offset=".232" stop-color="#4cc5ef"/><stop offset=".644" stop-color="#6bd4f6"/><stop offset="1" stop-color="#8ae4fd"/></linearGradient><path fill="url(#b)" d="M50 58H16a3 3 0 0 1-3-3V9a3 3 0 0 1 3-3h20.757c.796 0 1.559.316 2.121.879l13.243 13.243c.563.562.879 1.325.879 2.121V55a3 3 0 0 1-3 3z"/><linearGradient id="c" x1="38.879" x2="46.454" y1="20.121" y2="12.546" gradientUnits="userSpaceOnUse" spreadMethod="reflect"><stop offset="0" stop-color="#c6effd"/><stop offset=".375" stop-color="#b7ecfd"/><stop offset="1" stop-color="#95e6fd"/></linearGradient><path fill="url(#c)" d="M52.121 20.122 38.878 6.879a3.012 3.012 0 0 0-.878-.6V18a3 3 0 0 0 3 3h11.721a2.974 2.974 0 0 0-.6-.878z"/><linearGradient id="d" x1="45.5" x2="45.5" y1="24.083" y2="18.083" gradientUnits="userSpaceOnUse" spreadMethod="reflect"><stop offset="0" stop-color="#42c6ee"/><stop offset=".48" stop-color="#3bc3ed"/><stop offset="1" stop-color="#2ebeea"/></linearGradient><path fill="url(#d)" d="M41 21a3 3 0 0 1-3-3v3a3 3 0 0 0 3 3h12v-1.757c0-.434-.102-.855-.279-1.243H41z"/><linearGradient id="e" x1="22" x2="22" y1="21" y2="6" gradientUnits="userSpaceOnUse" spreadMethod="reflect"><stop offset="0" stop-color="#81dcf7"/><stop offset=".48" stop-color="#8ce1f9"/><stop offset="1" stop-color="#9ee8fd"/></linearGradient><path fill="url(#e)" d="M21.5 21H13V9a3 3 0 0 1 3-3h9.5a2.5 2.5 0 1 1 0 5h-5a2.5 2.5 0 1 0 0 5h1a2.5 2.5 0 1 1 0 5zm7.5-4a2 2 0 1 0-.001 3.999A2 2 0 0 0 29 17z"/><linearGradient id="f" x1="41.5" x2="41.5" y1="41" y2="58" gradientUnits="userSpaceOnUse" spreadMethod="reflect"><stop offset="0" stop-color="#47c3ee"/><stop offset=".98" stop-color="#32b5e8"/><stop offset="1" stop-color="#32b5e8"/></linearGradient><path fill="url(#f)" d="M44 41h9v14a3 3 0 0 1-3 3H33a3 3 0 1 1 0-6h11.5a2.5 2.5 0 1 0 0-5H44a3 3 0 1 1 0-6zm-8 0a3 3 0 1 0 0 6 3 3 0 0 0 0-6z"/></svg>