<svg width="22" height="22" viewBox="0 0 22 22" fill="none" xmlns="http://www.w3.org/2000/svg">
<path d="M6.85908 1.14563H14.2441C14.6864 1.14563 15.1082 1.32139 15.4217 1.63484L18.8315 5.04465C19.145 5.3581 19.3207 5.77993 19.3207 6.22227V19.0354C19.3207 20.673 17.9937 22 16.3562 22H6.85908C5.22155 22 3.89453 20.673 3.89453 19.0354V4.10725C3.89453 2.46972 5.22155 1.1427 6.85908 1.1427V1.14563Z" fill="#7780B2"/>
<path d="M18.1811 5.85622V18.7807C18.1811 19.9232 17.2554 20.8489 16.1129 20.8489H4.74979C3.6044 20.8489 2.67871 19.9202 2.67871 18.7778V2.06852C2.67871 0.926054 3.6044 0.000366211 4.74686 0.000366211H12.3018C12.665 0.000366211 12.9609 0.296235 12.9609 0.65948V2.50207C12.9609 3.99313 14.1678 5.20004 15.6589 5.20004H17.5249C17.8881 5.20004 18.184 5.49591 18.184 5.85915L18.1811 5.85622Z" fill="#B7BEF9"/>
<path d="M17.9176 4.16005H15.6034C14.7011 4.16005 13.9688 3.4277 13.9688 2.52544V0.263952C13.9688 0.0296005 14.2529 -0.0875753 14.4199 0.0764708L18.1051 3.70892C18.272 3.87589 18.1549 4.16297 17.9205 4.16297L17.9176 4.16005Z" fill="#B7BEF9"/>
<path d="M11.1478 8.05615H5.13372C4.75676 8.05615 4.45117 8.36174 4.45117 8.7387V8.77971C4.45117 9.15667 4.75676 9.46226 5.13372 9.46226H11.1478C11.5247 9.46226 11.8303 9.15667 11.8303 8.77971V8.7387C11.8303 8.36174 11.5247 8.05615 11.1478 8.05615Z" fill="white"/>
<path d="M11.1478 11.0881H5.13372C4.75676 11.0881 4.45117 11.3937 4.45117 11.7707V11.8117C4.45117 12.1887 4.75676 12.4942 5.13372 12.4942H11.1478C11.5247 12.4942 11.8303 12.1887 11.8303 11.8117V11.7707C11.8303 11.3937 11.5247 11.0881 11.1478 11.0881Z" fill="white"/>
<path d="M11.1478 14.1229H5.13372C4.75676 14.1229 4.45117 14.4285 4.45117 14.8055V14.8465C4.45117 15.2234 4.75676 15.529 5.13372 15.529H11.1478C11.5247 15.529 11.8303 15.2234 11.8303 14.8465V14.8055C11.8303 14.4285 11.5247 14.1229 11.1478 14.1229Z" fill="white"/>
<path d="M15.571 8.05615H13.7753C13.4097 8.05615 13.1133 8.35256 13.1133 8.7182V10.5139C13.1133 10.8795 13.4097 11.176 13.7753 11.176H15.571C15.9367 11.176 16.2331 10.8795 16.2331 10.5139V8.7182C16.2331 8.35256 15.9367 8.05615 15.571 8.05615Z" fill="white"/>
<path d="M15.571 12.4062H13.7753C13.4097 12.4062 13.1133 12.7027 13.1133 13.0683V14.864C13.1133 15.2296 13.4097 15.5261 13.7753 15.5261H15.571C15.9367 15.5261 16.2331 15.2296 16.2331 14.864V13.0683C16.2331 12.7027 15.9367 12.4062 15.571 12.4062Z" fill="white"/>
</svg>
