<svg xmlns="http://www.w3.org/2000/svg" xmlns:xlink="http://www.w3.org/1999/xlink" viewBox="0 0 48 48"><linearGradient id="b" x1="-7.018" x2="39.387" y1="9.308" y2="33.533" gradientUnits="userSpaceOnUse"><stop offset="0" stop-color="#fac017"/><stop offset=".909" stop-color="#e1ab2d"/></linearGradient><linearGradient id="a"><stop offset="0" stop-color="#fbfef3"/><stop offset=".909" stop-color="#e2e4e3"/></linearGradient><linearGradient xlink:href="#a" id="c" x1="5.851" x2="18.601" y1="9.254" y2="27.39" gradientUnits="userSpaceOnUse"/><linearGradient xlink:href="#a" id="d" x1="2" x2="22" y1="19" y2="19" gradientUnits="userSpaceOnUse"/><linearGradient id="e" x1="16.865" x2="44.965" y1="39.287" y2="39.792" gradientUnits="userSpaceOnUse"><stop offset="0" stop-color="#e3a917"/><stop offset=".464" stop-color="#d79c1e"/></linearGradient><linearGradient id="f" x1="-4.879" x2="35.968" y1="12.764" y2="30.778" gradientUnits="userSpaceOnUse"><stop offset=".34" stop-color="#ffefb2"/><stop offset=".485" stop-color="#ffedad"/><stop offset=".652" stop-color="#ffe99f"/><stop offset=".828" stop-color="#fee289"/><stop offset="1" stop-color="#fed86b"/></linearGradient><radialGradient id="g" cx="37.836" cy="49.317" r="53.875" gradientUnits="userSpaceOnUse"><stop offset=".199" stop-color="#fec832"/><stop offset=".601" stop-color="#fcd667"/><stop offset=".68" stop-color="#fdda75"/><stop offset=".886" stop-color="#fee496"/><stop offset="1" stop-color="#ffe8a2"/></radialGradient><path fill="url(#b)" d="M44.5 41h-41A2.5 2.5 0 0 1 1 38.5v-31A2.5 2.5 0 0 1 3.5 5h11.597c1.519 0 2.955.69 3.904 1.877L21.5 10h23a2.5 2.5 0 0 1 2.5 2.5v26a2.5 2.5 0 0 1-2.5 2.5z"/><path fill="url(#c)" d="M2 25h20V11H4a2 2 0 0 0-2 2z"/><path fill="url(#d)" d="M2 26h20V12H4a2 2 0 0 0-2 2z"/><path fill="url(#e)" d="M1 37.875v.625A2.5 2.5 0 0 0 3.5 41h41a2.5 2.5 0 0 0 2.5-2.5v-.625z"/><path fill="url(#f)" d="M44.5 11h-23l-1.237.824A6.992 6.992 0 0 1 16.381 13H3.5A2.5 2.5 0 0 0 1 15.5v22A2.5 2.5 0 0 0 3.5 40h41a2.5 2.5 0 0 0 2.5-2.5v-24a2.5 2.5 0 0 0-2.5-2.5z"/><path fill="url(#g)" d="M44.5 40h-41A2.5 2.5 0 0 1 1 37.5v-21A2.5 2.5 0 0 1 3.5 14h13.256a6.998 6.998 0 0 0 3.883-1.176L21.875 12H44.5a2.5 2.5 0 0 1 2.5 2.5v23a2.5 2.5 0 0 1-2.5 2.5z"/></svg>