<svg width="22" height="22" viewBox="0 0 22 22" fill="none" xmlns="http://www.w3.org/2000/svg">
<path d="M21.9999 6.55547V18.5062C21.9999 19.5346 21.1679 20.3666 20.1395 20.3666H3.36336C2.335 20.3666 1.50293 19.5346 1.50293 18.5062V4.45186C1.50293 3.4235 2.335 2.59143 3.36336 2.59143H8.02177C8.48761 2.59143 8.93295 2.77308 9.26109 3.10415L10.852 4.69504H20.1395C21.1679 4.69504 21.9999 5.52711 21.9999 6.55547Z" fill="#ECA32A"/>
<path d="M20.497 5.59747V17.5482C20.497 18.5766 19.6649 19.4086 18.6366 19.4086H1.86043C0.832068 19.4086 0 18.5766 0 17.5482V3.49386C0 2.46549 0.832068 1.63342 1.86043 1.63342H6.51884C6.98468 1.63342 7.43002 1.81507 7.75816 2.14614L9.34905 3.73703H18.6366C19.6649 3.73703 20.497 4.5691 20.497 5.59747Z" fill="#E8CD41"/>
<path d="M17.84 13.3175H13.8379C13.5175 13.3175 13.2578 13.5772 13.2578 13.8976V15.4651C13.2578 15.7854 13.5175 16.0452 13.8379 16.0452H17.84C18.1604 16.0452 18.4202 15.7854 18.4202 15.4651V13.8976C18.4202 13.5772 18.1604 13.3175 17.84 13.3175Z" fill="white"/>
</svg>
