<svg width="22" height="22" viewBox="0 0 22 22" fill="none" xmlns="http://www.w3.org/2000/svg">
<path d="M13.1911 13.7942H8.80762V17.7764H13.1911V13.7942Z" fill="#262025"/>
<path d="M7.20898 19.36H14.7908L13.1908 17.7749H8.80729L7.20898 19.36Z" fill="#322B38"/>
<path d="M0.967072 1.7981H21.0329C21.5675 1.7981 22 2.23426 22 2.77325V15.4078C22 15.9467 21.5675 16.3829 21.0329 16.3829H0.967072C0.432545 16.3829 0 15.9467 0 15.4078V2.77325C0 2.23426 0.432545 1.7981 0.967072 1.7981Z" fill="#322B38"/>
<path d="M1.90279 2.47895H20.0978C20.5813 2.47895 20.9752 2.87433 20.9752 3.36368V14.8209C20.9752 15.3085 20.5831 15.7056 20.0978 15.7056H1.90279C1.41925 15.7056 1.02539 15.3103 1.02539 14.8209V3.36191C1.02539 2.87433 1.41749 2.47717 1.90279 2.47717V2.47895Z" fill="#262025"/>
<path d="M20.4683 14.4328C20.4683 14.8884 20.0955 15.2572 19.6366 15.2572H2.36293C1.90401 15.2572 1.53125 14.8884 1.53125 14.4328V3.75036C1.53125 3.29469 1.90401 2.9259 2.36293 2.9259H19.6348C20.0937 2.9259 20.4665 3.29469 20.4665 3.75036V14.4328H20.4683Z" fill="#1E9BEF"/>
<path d="M2.36337 15.2573C1.9037 15.2573 1.53125 14.8872 1.53125 14.4329V3.7486C1.53125 3.29243 1.9037 2.92419 2.36337 2.92419H19.6362C20.0958 2.92419 20.4683 3.29243 20.4683 3.7486L2.36337 15.2573Z" fill="#41B8F4"/>
<path d="M14.7908 19.3597H7.20898V20.2019H14.7908V19.3597Z" fill="#262025"/>
</svg>
