<?xml version="1.0" encoding="UTF-8"?>
<svg id="Calque_1" data-name="Calque 1" xmlns="http://www.w3.org/2000/svg" viewBox="0 0 92.61 138.42">
  <defs>
    <style>
      .cls-1 {
        fill: #d9d9d9;
      }

      .cls-1, .cls-2, .cls-3, .cls-4, .cls-5, .cls-6, .cls-7 {
        stroke-width: 0px;
      }

      .cls-2 {
        fill: #d7ebff;
      }

      .cls-3 {
        fill: #234f7a;
      }

      .cls-4 {
        fill: #15365e;
      }

      .cls-5 {
        fill: #fff;
      }

      .cls-6 {
        fill: #ff5b00;
      }

      .cls-7 {
        fill: #0264b5;
      }
    </style>
  </defs>
  <path class="cls-4" d="M8.86,119.25c-.29,0-.59-.05-.89-.16-1.33-.49-2.02-1.97-1.53-3.3,1.78-4.86,3.31-8.89,3.31-8.89.5-1.33,1.99-2,3.32-1.49s2,1.99,1.49,3.32c0,0-1.52,4.01-3.29,8.84-.38,1.04-1.37,1.69-2.41,1.69Z"/>
  <path class="cls-4" d="M4.42,113.36c-.45,0-.9-.12-1.31-.36-1.22-.72-1.62-2.3-.9-3.52,3.25-5.48,5.83-6.68,6.55-6.91l1.62,4.88s.06-.01.17-.06c-.02,0-1.59.82-3.91,4.72-.48.81-1.34,1.26-2.21,1.26Z"/>
  <path class="cls-4" d="M16.9,119.39c-1.23,0-2.32-.89-2.53-2.14-.87-5.11-1.54-9.36-1.54-9.36-.22-1.4.74-2.72,2.14-2.94,1.4-.23,2.72.74,2.94,2.14,0,0,.67,4.23,1.53,9.31.24,1.4-.71,2.73-2.11,2.96-.15.02-.29.04-.43.04Z"/>
  <path class="cls-4" d="M22.87,114.83c-.83,0-1.64-.4-2.13-1.13-2.9-4.29-5.27-7.89-5.27-7.89-.78-1.19-.45-2.78.73-3.56,1.18-.78,2.78-.45,3.56.73,0,0,2.36,3.58,5.24,7.84.79,1.18.49,2.78-.69,3.57-.44.3-.94.44-1.44.44Z"/>
  <circle id="MAIN_-_PAUME_D" data-name="MAIN - PAUME D" class="cls-3" cx="14.09" cy="105.04" r="7.15"/>
  <circle id="MAIN_-_PAUME_D-2" data-name="MAIN - PAUME D" class="cls-7" cx="14.09" cy="105.04" r="7.15"/>
  <circle id="EPAULE_D" data-name="EPAULE D" class="cls-4" cx="13.96" cy="71.1" r="6.44"/>
  <path id="BRAS_DROIT" data-name="BRAS DROIT" class="cls-2" d="M1.56,76.07h23.03c2.28,0,4.13,1.85,4.13,4.13v10.87c0,2.28-1.85,4.13-4.13,4.13H1.56c-1.05,0-1.9-.85-1.9-1.9v-15.32c0-1.05.85-1.9,1.9-1.9Z" transform="translate(99.58 70.09) rotate(89.1)"/>
  <ellipse class="cls-1" cx="45.36" cy="130.73" rx="27.53" ry="6.45"/>
  <path class="cls-4" d="M83.15,118.09c-1.04,0-2.02-.63-2.41-1.66-1.82-4.81-3.38-8.8-3.38-8.8-.52-1.32.14-2.81,1.46-3.33,1.32-.52,2.81.14,3.33,1.46,0,0,1.57,4.01,3.4,8.86.5,1.33-.17,2.81-1.5,3.31-.3.11-.61.17-.91.17Z"/>
  <path class="cls-4" d="M87.53,112.16c-.87,0-1.72-.44-2.2-1.24-2.35-3.88-3.94-4.67-3.96-4.68.11.05.17.06.17.06l1.57-4.9c.72.23,3.31,1.4,6.62,6.85.74,1.21.35,2.8-.86,3.53-.42.25-.88.37-1.33.37Z"/>
  <path class="cls-4" d="M75.11,118.32c-.13,0-.27-.01-.41-.03-1.4-.22-2.36-1.54-2.13-2.94.81-5.08,1.44-9.32,1.44-9.32.21-1.4,1.52-2.37,2.92-2.17,1.41.21,2.38,1.52,2.17,2.92,0,0-.63,4.26-1.45,9.38-.2,1.27-1.29,2.17-2.54,2.17Z"/>
  <path class="cls-4" d="M69.1,113.81c-.49,0-.98-.14-1.42-.43-1.19-.78-1.51-2.38-.73-3.56,2.83-4.29,5.16-7.89,5.16-7.9.77-1.19,2.36-1.54,3.55-.77,1.19.77,1.54,2.36.77,3.55,0,0-2.33,3.62-5.19,7.94-.49.75-1.31,1.15-2.15,1.15Z"/>
  <circle id="MAIN_-_PAUME_D-3" data-name="MAIN - PAUME D" class="cls-3" cx="77.8" cy="103.94" r="7.15"/>
  <circle id="MAIN_-_PAUME_D-4" data-name="MAIN - PAUME D" class="cls-7" cx="77.8" cy="103.94" r="7.15"/>
  <circle id="GENOUX_D" data-name="GENOUX D" class="cls-4" cx="34.7" cy="112.56" r="4.09"/>
  <path id="JAMBE_D" data-name="JAMBE D" class="cls-2" d="M24.81,129.68h12.27c1.18,0,2.14-.96,2.14-2.14v-10.97c0-.73-.37-1.41-.99-1.79l-7.41-4.67c-.51-.32-1.19-.05-1.33.54l-4.67,19.03Z"/>
  <path id="PIED_D" data-name="PIED D" class="cls-6" d="M26.71,121.67l2.22,8.01h-6.35c-.9,0-1.4-1.04-.84-1.74l4.98-6.26Z"/>
  <circle id="GENOUX_G" data-name="GENOUX G" class="cls-4" cx="57.64" cy="112.56" r="4.09"/>
  <path id="JAMBE_G" data-name="JAMBE G" class="cls-2" d="M67.5,129.68h-12.27c-1.18,0-2.14-.96-2.14-2.14v-10.97c0-.73.37-1.41.99-1.79l7.41-4.67c.51-.32,1.19-.05,1.33.54l4.67,19.03Z"/>
  <path id="PIED_G" data-name="PIED G" class="cls-6" d="M65.54,121.67l-2.22,8.01h6.35c.9,0,1.4-1.04.84-1.74l-4.98-6.26Z"/>
  <path id="CORPS" class="cls-2" d="M38.16,66.15h15.99c6.01,0,10.89,4.88,10.89,10.89v23.81c0,2.47-2,4.47-4.47,4.47h-28.84c-2.47,0-4.47-2-4.47-4.47v-23.81c0-6.01,4.88-10.89,10.89-10.89Z" transform="translate(92.31 171.48) rotate(-180)"/>
  <rect class="cls-4" x="27.26" y="81.02" width="37.78" height="1.98"/>
  <g>
    <circle id="ENCART_TORSE" data-name="ENCART TORSE" class="cls-2" cx="36.96" cy="82.01" r="5.2"/>
    <path class="cls-4" d="M36.96,88.2c-3.42,0-6.19-2.78-6.19-6.19s2.78-6.19,6.19-6.19,6.19,2.78,6.19,6.19-2.78,6.19-6.19,6.19ZM36.96,77.8c-2.32,0-4.21,1.89-4.21,4.21s1.89,4.21,4.21,4.21,4.21-1.89,4.21-4.21-1.89-4.21-4.21-4.21Z"/>
  </g>
  <circle id="EPAULE_G" data-name="EPAULE G" class="cls-4" cx="77.59" cy="71.96" r="6.2"/>
  <path id="BRAS_GAUCHE" data-name="BRAS GAUCHE" class="cls-2" d="M65.34,76.74h22.18c2.19,0,3.97,1.78,3.97,3.97v10.47c0,2.19-1.78,3.97-3.97,3.97h-22.18c-1.01,0-1.83-.82-1.83-1.83v-14.76c0-1.01.82-1.83,1.83-1.83Z" transform="translate(163.91 8.95) rotate(90.34)"/>
  <path class="cls-6" d="M2.73,42.07l8.5,3.44.81-31.73-8.66,3c-1.44.5-2.43,1.84-2.47,3.37l-.47,18.43c-.04,1.53.87,2.92,2.29,3.49Z"/>
  <path class="cls-6" d="M88.92,44.28l-8.66,3,.81-31.73,8.5,3.44c1.42.57,2.33,1.97,2.29,3.49l-.47,18.43c-.04,1.53-1.02,2.87-2.47,3.37Z"/>
  <path id="TETE_-_CONTOUR" data-name="TETE - CONTOUR" class="cls-2" d="M7.49,16.21l-.68,26.64c-.06,2.21.32,4.36,1.13,6.41.78,1.97,1.91,3.75,3.37,5.29,1.46,1.54,3.18,2.76,5.11,3.64,2,.91,4.13,1.4,6.34,1.45l45.28,1.16c2.21.06,4.36-.32,6.41-1.13,1.97-.78,3.75-1.91,5.29-3.37,1.54-1.46,2.76-3.18,3.64-5.11.91-2,1.4-4.13,1.45-6.34l.68-26.64c.06-2.21-.32-4.36-1.13-6.41-.77-1.97-1.91-3.75-3.37-5.29-1.46-1.54-3.18-2.76-5.11-3.64-2-.91-4.13-1.4-6.34-1.45L24.28.26c-2.21-.06-4.36.32-6.41,1.13-1.97.77-3.75,1.91-5.29,3.37-1.54,1.46-2.76,3.18-3.64,5.11-.91,2-1.4,4.13-1.45,6.34Z"/>
  <rect id="TETE_-_ECRAN" data-name="TETE - ECRAN" class="cls-4" x="19.9" y="-3.15" width="44.51" height="63.15" rx="8.93" ry="8.93" transform="translate(12.66 69.84) rotate(-88.53)"/>
  <path class="cls-5" d="M44.56,11.75c1.21-1.67,6.56-1.58,7.27.75.7,2.33.16,17.61-1.44,19.5-1.57,1.86-6.2,1.66-6.9-.25-.73-1.98-.52-17.81,1.08-20Z"/>
  <path class="cls-5" d="M34.55,11.49c-1.18-1.73-6.79-1.91-7.66.38s-1.15,17.58.42,19.55c1.54,1.93,6.4,1.97,7.25.1s1.53-17.76-.01-20.03Z"/>
  <path class="cls-5" d="M39.16,41.18c11.8.3,13.04-3.38,16.65-3.35,1.86.01.7,9.05-16.78,8.6-17.04-.44-18.48-8.36-16.24-8.66,1.82-.24,3.97,3.1,16.37,3.41Z"/>
</svg>