<?xml version="1.0" encoding="UTF-8"?>
<svg id="Calque_1" data-name="Calque 1" xmlns="http://www.w3.org/2000/svg" viewBox="0 0 124.58 136.89">
  <defs>
    <style>
      .cls-1 {
        fill: #d9d9d9;
      }

      .cls-1, .cls-2, .cls-3, .cls-4, .cls-5, .cls-6, .cls-7 {
        stroke-width: 0px;
      }

      .cls-2 {
        fill: #d7ebff;
      }

      .cls-3 {
        fill: #234f7a;
      }

      .cls-4 {
        fill: #15365e;
      }

      .cls-5 {
        fill: #ff5b00;
      }

      .cls-6 {
        fill: #ffc200;
      }

      .cls-7 {
        fill: #0264b5;
      }
    </style>
  </defs>
  <ellipse class="cls-1" cx="70.25" cy="128.97" rx="27.6" ry="6.47"/>
  <circle id="MAIN_-_PAUME_D" data-name="MAIN - PAUME D" class="cls-3" cx="111.6" cy="105.02" r="7.17"/>
  <circle id="GENOUX_D" data-name="GENOUX D" class="cls-4" cx="58.93" cy="110.75" r="4.1"/>
  <path id="JAMBE_D" data-name="JAMBE D" class="cls-2" d="M49.01,127.91h12.3c1.18,0,2.14-.96,2.14-2.14v-11c0-.73-.37-1.41-.99-1.8l-7.43-4.68c-.51-.32-1.19-.05-1.34.54l-4.68,19.08Z"/>
  <path id="PIED_D" data-name="PIED D" class="cls-5" d="M50.92,119.88l2.23,8.03h-6.37c-.9,0-1.41-1.04-.84-1.75l4.99-6.28Z"/>
  <circle id="GENOUX_G" data-name="GENOUX G" class="cls-4" cx="81.93" cy="110.75" r="4.1"/>
  <path id="JAMBE_G" data-name="JAMBE G" class="cls-2" d="M91.82,127.91h-12.3c-1.18,0-2.14-.96-2.14-2.14v-11c0-.73.37-1.41.99-1.8l7.43-4.68c.51-.32,1.19-.05,1.34.54l4.68,19.08Z"/>
  <path id="PIED_G" data-name="PIED G" class="cls-5" d="M89.85,119.88l-2.23,8.03h6.37c.9,0,1.41-1.04.84-1.75l-4.99-6.28Z"/>
  <path id="CORPS" class="cls-2" d="M63.33,64.89h16.04c6.03,0,10.92,4.89,10.92,10.92v23.87c0,2.47-2.01,4.48-4.48,4.48h-28.92c-2.47,0-4.48-2.01-4.48-4.48v-23.87c0-6.03,4.89-10.92,10.92-10.92Z" transform="translate(136.65 173.81) rotate(-176.02)"/>
  <rect class="cls-4" x="70.61" y="61.86" width="1.99" height="37.88" transform="translate(-13.98 146.62) rotate(-86.02)"/>
  <g>
    <circle id="ENCART_TORSE" data-name="ENCART TORSE" class="cls-2" cx="62.41" cy="80.16" r="5.22"/>
    <path class="cls-4" d="M62.41,86.37c-.15,0-.29,0-.44-.02-3.42-.24-6-3.21-5.76-6.63h0c.12-1.65.87-3.17,2.12-4.25,1.25-1.09,2.85-1.63,4.51-1.51,1.65.12,3.17.87,4.25,2.12,1.09,1.25,1.62,2.85,1.51,4.51s-.87,3.17-2.12,4.25c-1.14.99-2.57,1.52-4.07,1.52ZM58.2,79.87c-.16,2.32,1.6,4.34,3.92,4.5,1.13.07,2.21-.29,3.06-1.03.85-.74,1.36-1.77,1.44-2.89.08-1.12-.29-2.21-1.03-3.06-.74-.85-1.77-1.36-2.89-1.44-1.12-.07-2.21.29-3.06,1.03s-1.36,1.77-1.44,2.89h0Z"/>
  </g>
  <path class="cls-5" d="M33.01,40.19l8.19,4.16,3.53-31.63-8.91,2.25c-1.49.38-2.58,1.63-2.75,3.16l-2.05,18.37c-.17,1.52.62,2.99,1.99,3.69Z"/>
  <path class="cls-5" d="M118.93,49.79l-8.91,2.25,3.53-31.63,8.19,4.16c1.37.69,2.16,2.16,1.99,3.69l-2.05,18.37c-.17,1.52-1.27,2.78-2.75,3.16Z"/>
  <path id="TETE_-_CONTOUR" data-name="TETE - CONTOUR" class="cls-2" d="M39.98,14.76l-2.97,26.56c-.25,2.2-.05,4.39.58,6.5.61,2.04,1.59,3.91,2.91,5.57,1.33,1.66,2.94,3.03,4.79,4.07,1.92,1.08,4.01,1.75,6.21,1.99l45.13,5.04c2.2.25,4.39.05,6.5-.58,2.04-.61,3.91-1.59,5.57-2.91,1.66-1.33,3.03-2.94,4.07-4.79,1.08-1.92,1.75-4.01,1.99-6.21l2.97-26.56c.25-2.2.05-4.39-.58-6.5-.6-2.04-1.59-3.91-2.91-5.57-1.33-1.66-2.94-3.03-4.79-4.07-1.92-1.08-4.01-1.75-6.21-1.99L58.11.27c-2.2-.25-4.39-.05-6.5.58-2.04.6-3.91,1.59-5.57,2.91-1.66,1.33-3.03,2.94-4.07,4.79-1.08,1.92-1.75,4.01-1.99,6.21Z"/>
  <path id="TETE_-_ECRAN" data-name="TETE - ECRAN" class="cls-4" d="M60.95-2.4h26.72c4.94,0,8.96,4.01,8.96,8.96v45.41c0,4.94-4.01,8.96-8.96,8.96h-26.72c-4.94,0-8.96-4.01-8.96-8.96V6.56c0-4.94,4.01-8.96,8.96-8.96Z" transform="translate(36.98 99.87) rotate(-83.63)"/>
  <path class="cls-4" d="M117.58,118.91c-.99,0-1.94-.57-2.36-1.54-2.08-4.72-3.85-8.63-3.86-8.63-.59-1.3-.01-2.83,1.28-3.41,1.3-.59,2.83-.01,3.41,1.28,0,0,1.79,3.94,3.88,8.69.57,1.3-.02,2.82-1.32,3.4-.34.15-.69.22-1.04.22Z"/>
  <path class="cls-4" d="M121.65,112.73c-.82,0-1.63-.39-2.13-1.12-2.57-3.76-4.2-4.47-4.21-4.47.11.05.17.05.17.05l1.31-4.99c.73.19,3.39,1.23,6.99,6.5.8,1.18.5,2.78-.68,3.58-.45.3-.95.45-1.45.45Z"/>
  <path class="cls-4" d="M109.54,119.56c-.09,0-.18,0-.27-.01-1.42-.15-2.44-1.42-2.3-2.83.54-5.13.94-9.4.94-9.41.13-1.42,1.39-2.47,2.81-2.33,1.42.13,2.46,1.39,2.33,2.81,0,0-.4,4.3-.94,9.47-.14,1.33-1.26,2.31-2.56,2.31Z"/>
  <path class="cls-4" d="M103.28,115.37c-.44,0-.89-.11-1.3-.35-1.23-.72-1.64-2.3-.92-3.53,2.61-4.45,4.74-8.18,4.74-8.18.71-1.24,2.28-1.67,3.52-.96,1.24.71,1.67,2.28.96,3.52,0,0-2.14,3.75-4.77,8.23-.48.82-1.34,1.28-2.23,1.28Z"/>
  <circle id="MAIN_-_PAUME_D-2" data-name="MAIN - PAUME D" class="cls-7" cx="111.6" cy="105.02" r="7.17"/>
  <circle id="EPAULE_G" data-name="EPAULE G" class="cls-4" cx="101.8" cy="75.01" r="6.22"/>
  <path id="BRAS_GAUCHE" data-name="BRAS GAUCHE" class="cls-2" d="M94.05,79.09h22.24c2.2,0,3.99,1.79,3.99,3.99v10.5c0,2.2-1.79,3.99-3.99,3.99h-22.24c-1.01,0-1.84-.82-1.84-1.84v-14.8c0-1.01.82-1.84,1.84-1.84Z" transform="translate(156.37 -40.43) rotate(71.54)"/>
  <circle id="EPAULE_D" data-name="EPAULE D" class="cls-4" cx="42.96" cy="71.38" r="6.45"/>
  <path id="BRAS_DROIT" data-name="BRAS DROIT" class="cls-2" d="M15.85,58.7h23.09c2.28,0,4.14,1.85,4.14,4.14v10.9c0,2.28-1.85,4.14-4.14,4.14H15.85c-1.05,0-1.91-.85-1.91-1.91v-15.36c0-1.05.85-1.91,1.91-1.91Z" transform="translate(44.9 140.46) rotate(-170.14)"/>
  <path class="cls-4" d="M13.27,61.57c-.12,0-.24,0-.36-.02-1.41-.19-2.4-1.5-2.2-2.91.02-.12,1.03-7.9-1.04-13.89-.46-1.35.25-2.81,1.6-3.28,1.34-.46,2.81.25,3.28,1.6,2.48,7.2,1.32,15.91,1.27,16.28-.18,1.29-1.28,2.23-2.55,2.23Z"/>
  <path class="cls-4" d="M18.31,65.94c-.53,0-1.06-.16-1.52-.49-1.15-.84-1.4-2.44-.58-3.59.11-.16,2.23-3.24.7-6-.69-1.25-.24-2.82,1.01-3.5,1.25-.69,2.81-.23,3.5,1.01,3.13,5.67-.87,11.28-1.04,11.52-.5.69-1.29,1.06-2.09,1.06Z"/>
  <path class="cls-4" d="M9.02,61.09c-1.18,0-2.25-.82-2.51-2.02,0-.04-.84-3.75-1.73-6.19-.49-1.34.21-2.82,1.54-3.3,1.34-.49,2.82.21,3.3,1.54,1,2.76,1.88,6.66,1.91,6.83.31,1.39-.56,2.77-1.95,3.08-.19.04-.38.06-.56.06Z"/>
  <path class="cls-4" d="M7.79,66.22c-.7,0-1.39-.28-1.9-.84-.11-.12-2.63-2.9-5.12-7.74-.65-1.27-.15-2.82,1.12-3.47,1.27-.65,2.82-.15,3.47,1.12,2.15,4.18,4.32,6.6,4.34,6.62.96,1.05.88,2.68-.17,3.64-.49.45-1.12.67-1.74.67Z"/>
  <circle id="MAIN_-_PAUME_D-3" data-name="MAIN - PAUME D" class="cls-7" cx="11.38" cy="62.72" r="8.67"/>
  <g>
    <path class="cls-6" d="M62.37,21.95c-.55,3.73.68,7.28,3.03,9.83.95,1.04,1.38,2.45,1.21,3.85l-.2,1.67c-.08.64.38,1.23,1.02,1.3l9.75,1.17c.64.08,1.23-.38,1.3-1.02l.2-1.67c.17-1.39.91-2.67,2.07-3.45,2.81-1.86,4.82-4.91,5.25-8.52.78-6.5-3.82-12.41-10.29-13.25-6.41-.84-12.41,3.68-13.35,10.08Z"/>
    <path class="cls-6" d="M68.11,44.81l-.83-.1c-.65-.08-1.12-.67-1.04-1.33l.24-1.97c.07-.58.6-1,1.18-.93l8.85,1.06c.58.07,1,.6.93,1.18l-.24,1.97c-.08.65-.67,1.12-1.33,1.04l-.82-.1-.53.76c-.32.45-.86.7-1.41.63l-3.44-.41c-.55-.07-1.02-.43-1.22-.95l-.33-.86Z"/>
    <path class="cls-6" d="M88.8,26.1l3.77.45c.61.07,1.16-.36,1.23-.97s-.36-1.16-.97-1.23l-3.77-.45c-.61-.07-1.16.36-1.23.97s.36,1.16.97,1.23Z"/>
    <path class="cls-6" d="M87.91,18.29c.28.03.58-.04.82-.23l2.98-2.34c.48-.38.56-1.07.19-1.55s-1.07-.56-1.55-.19l-2.98,2.34c-.48.38-.56,1.07-.19,1.55.19.24.46.38.74.42Z"/>
    <path class="cls-6" d="M88.42,36.47c.28.03.58-.04.82-.23.48-.38.56-1.07.19-1.55l-2.34-2.98c-.38-.48-1.07-.56-1.55-.19s-.56,1.07-.19,1.55l2.34,2.98c.19.24.46.38.74.42Z"/>
    <path class="cls-6" d="M55.59,22.11l3.77.45c.61.07,1.16-.36,1.23-.97s-.36-1.16-.97-1.23l-3.77-.45c-.61-.07-1.16.36-1.23.97s.36,1.16.97,1.23Z"/>
    <path class="cls-6" d="M62.08,15.18c.28.03.58-.04.82-.23.48-.38.56-1.07.19-1.55l-2.34-2.98c-.38-.48-1.07-.56-1.55-.19s-.56,1.07-.19,1.55l2.34,2.98c.19.24.46.38.74.42Z"/>
    <path class="cls-6" d="M57.26,32.72c.28.03.58-.04.82-.23l2.98-2.34c.48-.38.56-1.07.19-1.55s-1.07-.56-1.55-.19l-2.98,2.34c-.48.38-.56,1.07-.19,1.55.19.24.46.38.74.42Z"/>
  </g>
</svg>